<svg xmlns="http://www.w3.org/2000/svg" width="450" height="450" viewBox="0 0 450 450">
<g>
<path d="M 141.00 316.14 C142.43,316.44 144.04,316.63 146.05,316.77 C152.94,317.26 153.03,317.31 151.29,319.24 C149.57,321.13 149.61,321.28 152.51,323.61 C153.63,324.51 155.05,325.38 156.63,326.18 C151.90,324.08 148.07,321.53 147.81,319.77 C147.57,318.10 146.38,317.39 142.34,316.49 C141.91,316.39 141.46,316.27 141.00,316.14 ZM 333.40 237.72 C331.81,238.27 330.09,238.92 328.18,239.68 C324.70,241.06 321.66,241.99 321.42,241.75 C321.17,241.51 321.75,239.55 322.70,237.40 C322.80,237.18 322.89,236.95 322.98,236.71 C322.82,237.27 322.65,237.78 322.47,238.25 C321.53,240.67 324.57,240.54 333.40,237.72 ZM 199.60 73.87 C199.58,74.73 199.58,75.69 199.58,76.78 L 199.62 85.05 L 197.33 82.28 L 196.12 80.81 C196.67,80.89 197.28,81.10 198.00,81.40 C199.24,81.91 199.51,80.85 199.57,75.24 C199.58,74.76 199.58,74.30 199.60,73.87 ZM 324.08 231.52 C324.34,228.87 324.45,225.28 324.46,220.00 C324.47,215.77 324.47,212.83 324.35,210.54 C324.53,212.13 324.66,213.90 324.76,216.00 C325.02,221.41 324.75,226.99 324.08,231.52 ZM 171.89 330.01 C175.11,330.05 175.79,330.39 175.36,331.51 C174.96,332.54 176.02,333.64 177.97,334.61 C176.01,333.67 174.94,332.60 175.32,331.62 C175.66,330.73 174.85,330.30 171.89,330.01 ZM 124.57 306.08 C122.35,303.76 121.96,302.95 122.74,301.83 C121.95,302.96 122.39,303.81 124.82,306.32 C126.22,307.76 129.04,309.97 131.68,311.74 C129.00,310.05 126.49,308.08 124.57,306.08 ZM 368.00 236.94 C375.06,239.69 381.10,245.21 389.27,255.25 C381.14,245.26 375.04,239.71 368.00,236.94 ZM 186.29 112.94 C186.97,114.93 186.97,116.37 186.47,116.81 C186.90,116.35 186.87,114.97 186.29,112.94 ZM 310.72 172.33 C307.07,162.85 304.00,154.64 304.00,154.14 C304.00,154.59 307.04,162.74 310.72,172.33 Z" fill="rgba(60,33,39,1)"/>
<path d="M 258.85 385.87 C258.84,385.65 258.83,385.44 258.81,385.22 C258.38,380.03 255.54,379.80 250.78,384.56 C248.77,386.56 246.71,387.94 246.20,387.62 C245.68,387.30 244.95,383.83 244.56,379.90 C243.64,370.58 242.79,368.57 239.15,367.06 C237.35,366.31 235.73,364.67 235.14,362.97 C234.32,360.61 233.50,360.08 230.33,359.81 C227.21,359.56 226.26,358.95 225.12,356.50 C223.22,352.39 221.27,350.30 218.69,349.63 C216.99,349.19 214.10,351.38 207.52,358.64 C209.36,356.53 211.16,354.47 212.75,352.66 C217.84,346.89 222.00,341.90 222.00,341.57 C222.00,341.25 218.96,341.27 215.25,341.61 C212.43,341.87 209.50,341.80 206.98,341.49 C212.52,341.86 221.02,341.23 222.43,340.06 C223.38,339.27 224.04,339.35 224.88,340.36 C227.49,343.49 244.00,337.26 244.00,333.14 C244.00,332.51 244.41,332.00 244.92,332.00 C245.99,332.00 250.00,325.79 250.00,324.13 C250.00,322.05 247.36,322.97 244.68,325.97 C242.53,328.39 241.61,328.79 239.77,328.09 C237.87,327.38 237.52,326.53 237.60,322.97 C237.72,317.76 239.72,316.00 245.55,316.00 C251.18,316.00 259.43,314.39 265.50,312.11 C268.25,311.08 272.38,309.67 274.68,308.98 L 278.87 307.72 L 285.18 312.73 C296.64,321.81 307.86,325.96 321.10,325.99 C325.89,326.00 327.84,325.63 329.01,324.45 C328.78,324.77 328.55,325.06 328.33,325.33 C327.05,326.88 326.00,328.50 326.00,328.92 C326.00,329.34 323.39,332.36 320.20,335.64 C313.15,342.86 300.18,352.15 292.30,355.62 C289.11,357.02 285.06,358.85 283.31,359.67 C281.56,360.50 275.26,362.61 269.31,364.36 L 258.50 367.55 L 258.86 378.14 C258.97,381.23 258.99,383.73 258.85,385.87 ZM 257.80 391.42 C256.55,394.94 254.10,397.84 249.57,402.40 C253.83,398.11 256.47,394.64 257.80,391.42 ZM 369.49 237.57 C375.93,240.50 381.68,245.92 389.27,255.25 C381.72,245.97 375.92,240.52 369.49,237.57 ZM 79.25 178.58 C86.54,180.54 98.57,183.74 106.00,185.68 C98.57,183.74 86.43,180.51 79.00,178.51 C71.57,176.51 59.88,173.36 53.00,171.52 C46.13,169.68 39.76,167.88 38.85,167.52 C39.76,167.88 46.24,169.71 53.25,171.59 C60.26,173.47 71.96,176.61 79.25,178.58 ZM 201.20 340.04 C200.46,339.65 200.03,339.21 200.00,338.74 C200.03,339.12 200.49,339.60 201.20,340.04 Z" fill="rgba(113,13,95,1)"/>
<path d="M 146.00 430.07 C146.00,429.46 155.81,417.84 167.79,404.23 C179.78,390.63 193.02,375.45 197.21,370.50 C211.48,353.67 216.28,349.00 218.69,349.63 C221.27,350.30 223.22,352.39 225.12,356.50 C226.26,358.95 227.21,359.56 230.33,359.81 C233.50,360.08 234.32,360.61 235.14,362.97 C235.73,364.67 237.35,366.31 239.15,367.06 C242.79,368.57 243.64,370.58 244.56,379.90 C244.95,383.83 245.68,387.30 246.20,387.62 C246.71,387.94 248.77,386.56 250.78,384.56 C255.54,379.80 258.38,380.03 258.81,385.22 C259.24,390.44 256.63,395.29 249.57,402.40 C241.97,410.04 239.43,411.59 238.19,409.37 C237.43,408.01 236.43,408.43 231.40,412.24 C228.15,414.70 222.85,418.16 219.62,419.94 L 213.73 423.17 L 214.23 420.56 C214.95,416.82 213.88,416.69 208.80,419.91 C206.33,421.48 202.56,423.32 200.41,424.02 C198.26,424.71 195.60,425.66 194.50,426.13 C189.27,428.37 183.69,429.93 182.84,429.40 C182.29,429.06 182.54,427.82 183.45,426.44 C185.46,423.37 185.41,422.62 183.25,423.48 C182.29,423.86 180.82,424.32 180.00,424.51 C179.18,424.70 176.53,425.56 174.12,426.42 C171.72,427.29 168.65,428.00 167.31,428.00 C165.97,428.00 164.11,428.39 163.18,428.88 C160.37,430.34 146.00,431.34 146.00,430.07 ZM 203.25 340.95 C201.46,340.39 200.00,339.39 200.00,338.71 C200.00,337.84 197.71,337.46 192.25,337.44 C183.31,337.40 174.31,334.24 175.36,331.51 C175.83,330.29 174.99,330.00 171.01,330.00 C165.29,330.00 156.81,327.07 152.51,323.61 C149.61,321.28 149.57,321.13 151.29,319.24 C153.03,317.31 152.94,317.26 146.05,316.77 C140.40,316.37 137.97,315.62 133.50,312.91 C130.45,311.06 126.55,308.10 124.82,306.32 C122.19,303.60 121.89,302.84 122.97,301.54 C124.03,300.26 123.97,300.00 122.59,300.00 C120.46,300.00 111.46,295.50 107.21,292.30 C105.40,290.95 102.10,287.53 99.87,284.72 C96.02,279.84 95.93,279.57 97.92,278.84 C101.09,277.66 100.43,276.46 95.75,274.92 C90.24,273.11 79.26,262.40 75.16,254.85 L 72.09 249.19 L 74.55 248.58 C75.90,248.24 76.98,247.63 76.95,247.23 C76.92,246.83 74.78,245.12 72.20,243.42 C65.59,239.10 58.66,230.08 55.06,221.13 C51.31,211.82 51.22,210.59 54.35,211.37 C58.43,212.40 58.24,210.71 53.80,206.38 C44.55,197.36 40.18,189.31 37.50,176.35 C35.87,168.44 36.17,166.45 38.85,167.52 C39.76,167.88 46.12,169.68 53.00,171.52 C59.88,173.36 71.57,176.51 79.00,178.51 C86.43,180.51 98.57,183.74 106.00,185.68 C113.43,187.61 124.45,190.54 130.50,192.19 C136.55,193.83 145.10,196.08 149.50,197.17 C153.90,198.27 162.00,200.46 167.50,202.05 C180.80,205.89 182.27,206.17 183.81,205.17 C184.82,204.50 184.39,203.16 181.89,199.14 C177.48,192.04 175.23,178.00 178.50,178.00 C180.52,178.00 180.39,176.69 177.87,171.74 C175.54,167.18 174.34,157.32 175.42,151.59 C176.02,148.37 176.36,148.05 178.55,148.60 C181.39,149.31 181.47,148.89 179.53,143.50 C177.36,137.47 177.58,125.14 179.96,119.58 C182.02,114.79 182.82,114.22 184.78,116.18 C186.71,118.11 187.47,116.20 186.19,112.65 C184.09,106.85 184.73,99.50 188.02,91.68 C189.68,87.73 191.94,83.38 193.04,82.00 L 195.03 79.50 L 197.33 82.28 L 199.62 85.05 L 199.58 76.78 C199.55,69.25 199.88,67.82 203.20,61.00 C207.10,52.99 213.27,45.00 215.54,45.00 C216.31,45.00 217.41,45.90 218.00,47.00 C219.80,50.36 220.69,49.27 221.35,42.90 C222.25,34.29 226.85,26.07 235.69,17.25 C239.69,13.26 243.79,10.00 244.80,10.00 C246.24,10.00 247.73,12.75 251.47,22.25 C271.79,73.93 283.61,103.75 286.64,111.00 C288.59,115.68 291.68,123.83 293.50,129.12 C295.33,134.41 297.29,139.59 297.86,140.62 C298.43,141.65 299.15,144.13 299.46,146.11 C299.78,148.10 300.93,150.53 302.02,151.52 C303.11,152.50 304.00,153.68 304.00,154.14 C304.00,155.17 316.97,188.76 321.32,199.00 C324.38,206.21 324.50,207.02 324.46,220.00 C324.43,230.55 324.05,234.35 322.70,237.40 C321.75,239.55 321.17,241.51 321.42,241.75 C321.66,241.99 324.70,241.06 328.18,239.68 C338.37,235.64 342.96,234.68 352.50,234.59 C368.07,234.44 375.94,238.86 389.28,255.26 C396.38,263.99 397.30,272.75 391.75,278.74 L 389.67 280.98 L 388.56 278.74 C386.97,275.55 382.61,273.78 375.02,273.23 C361.34,272.25 351.03,280.49 342.02,299.59 C335.01,314.44 330.99,322.16 329.20,324.25 C328.04,325.59 326.15,326.00 321.10,325.99 C307.86,325.96 296.64,321.81 285.18,312.73 L 278.87 307.72 L 274.68 308.98 C272.38,309.67 268.25,311.08 265.50,312.11 C259.43,314.39 251.18,316.00 245.55,316.00 C239.72,316.00 237.72,317.76 237.60,322.97 C237.52,326.53 237.87,327.38 239.77,328.09 C241.61,328.79 242.53,328.39 244.68,325.97 C247.36,322.97 250.00,322.05 250.00,324.13 C250.00,325.79 245.99,332.00 244.92,332.00 C244.41,332.00 244.00,332.51 244.00,333.14 C244.00,337.26 227.49,343.49 224.88,340.36 C224.04,339.35 223.38,339.27 222.43,340.06 C220.63,341.55 207.23,342.17 203.25,340.95 Z" fill="rgba(163,8,77,1)"/>
<path d="M 146.00 430.08 C146.00,429.06 181.25,388.39 199.16,368.75 C206.59,360.60 207.36,360.03 210.32,360.53 C212.07,360.82 214.62,361.89 216.00,362.90 C218.23,364.54 218.46,365.33 218.16,370.26 C217.77,376.70 218.64,377.62 223.51,375.86 C227.82,374.30 228.95,375.22 229.71,380.90 C230.35,385.61 230.43,385.71 235.08,386.48 C239.33,387.19 241.63,389.83 242.50,395.00 C243.26,399.49 244.55,399.93 248.27,397.00 C251.07,394.80 253.00,394.42 253.00,396.06 C253.00,397.07 244.14,407.13 241.00,409.69 C239.80,410.66 239.27,410.60 238.34,409.39 C237.34,408.07 236.38,408.47 231.34,412.29 C228.13,414.72 222.85,418.16 219.62,419.94 L 213.73 423.17 L 214.23 420.56 C214.95,416.82 213.88,416.69 208.80,419.91 C206.33,421.48 202.56,423.32 200.41,424.02 C198.26,424.71 195.60,425.66 194.50,426.13 C189.27,428.37 183.69,429.93 182.84,429.40 C182.29,429.06 182.54,427.82 183.45,426.44 C185.46,423.37 185.41,422.62 183.25,423.48 C182.29,423.86 180.82,424.32 180.00,424.51 C179.18,424.70 176.53,425.56 174.12,426.42 C171.72,427.29 168.65,428.00 167.31,428.00 C165.97,428.00 164.11,428.39 163.18,428.88 C160.39,430.33 146.00,431.34 146.00,430.08 ZM 178.86 334.83 C176.01,333.55 174.96,332.55 175.36,331.50 C175.83,330.29 174.98,330.00 171.01,330.00 C165.29,330.00 156.81,327.07 152.51,323.61 C149.61,321.28 149.57,321.13 151.29,319.24 C153.03,317.31 152.94,317.26 146.05,316.77 C140.40,316.37 137.97,315.62 133.50,312.91 C130.45,311.06 126.55,308.10 124.82,306.32 C122.19,303.60 121.89,302.84 122.97,301.54 C124.03,300.26 123.97,300.00 122.59,300.00 C120.46,300.00 111.46,295.50 107.21,292.30 C105.40,290.95 102.10,287.53 99.87,284.72 C96.02,279.84 95.93,279.57 97.92,278.84 C101.09,277.66 100.43,276.46 95.75,274.92 C90.24,273.11 79.26,262.40 75.16,254.85 L 72.09 249.19 L 74.55 248.58 C75.90,248.24 76.98,247.63 76.95,247.23 C76.92,246.83 74.78,245.12 72.20,243.42 C65.59,239.10 58.66,230.08 55.06,221.13 C51.31,211.82 51.22,210.59 54.35,211.37 C58.43,212.40 58.24,210.71 53.80,206.38 C44.55,197.36 40.18,189.31 37.50,176.35 C35.87,168.44 36.17,166.45 38.85,167.52 C39.76,167.88 46.24,169.71 53.25,171.59 C60.26,173.47 71.96,176.61 79.25,178.58 C86.54,180.54 98.57,183.74 106.00,185.68 C113.43,187.61 124.45,190.54 130.50,192.19 C136.55,193.83 145.10,196.08 149.50,197.17 C153.90,198.27 162.20,200.55 167.95,202.24 C173.70,203.93 179.78,205.35 181.45,205.40 C183.13,205.46 184.73,205.76 185.00,206.09 C185.27,206.41 187.30,207.17 189.50,207.78 C204.43,211.93 219.77,216.24 221.25,216.69 C223.63,217.43 223.47,215.49 220.77,211.12 C219.05,208.34 218.51,205.88 218.42,200.41 C218.36,196.51 217.92,192.68 217.43,191.91 C216.94,191.13 216.31,186.69 216.02,182.03 L 215.50 173.56 L 210.62 172.19 C206.05,170.90 205.62,170.94 203.69,172.86 C201.30,175.25 201.98,177.54 206.91,183.82 C210.26,188.09 211.72,192.00 209.96,192.00 C209.32,192.00 206.25,191.36 203.14,190.57 C200.04,189.78 195.02,188.99 192.00,188.82 C186.91,188.52 186.48,188.67 186.17,190.81 C185.99,192.08 186.55,194.19 187.41,195.51 C188.27,196.82 188.73,198.55 188.42,199.35 C187.94,200.59 187.48,200.61 185.27,199.46 C181.90,197.72 178.07,189.90 177.32,183.25 C176.81,178.81 176.97,178.00 178.36,178.00 C180.53,178.00 180.43,176.76 177.87,171.74 C175.54,167.18 174.34,157.32 175.42,151.59 C176.02,148.37 176.36,148.05 178.55,148.60 C181.39,149.31 181.47,148.89 179.53,143.50 C177.36,137.47 177.58,125.14 179.96,119.58 C182.02,114.79 182.82,114.22 184.78,116.18 C186.71,118.11 187.47,116.20 186.19,112.65 C184.09,106.85 184.73,99.50 188.02,91.68 C189.68,87.73 191.94,83.38 193.04,82.00 L 195.03 79.50 L 197.33 82.28 L 199.62 85.05 L 199.58 76.78 C199.55,69.25 199.88,67.82 203.20,61.00 C207.10,52.99 213.27,45.00 215.54,45.00 C216.31,45.00 217.41,45.90 218.00,47.00 C219.80,50.36 220.69,49.27 221.35,42.90 C222.25,34.29 226.85,26.07 235.69,17.25 C239.69,13.26 243.79,10.00 244.80,10.00 C246.24,10.00 247.73,12.75 251.47,22.25 C271.79,73.93 283.61,103.75 286.64,111.00 C288.59,115.68 291.68,123.83 293.50,129.12 C295.33,134.41 297.29,139.59 297.86,140.62 C298.43,141.65 299.15,144.13 299.46,146.11 C299.78,148.10 300.93,150.53 302.02,151.52 C303.11,152.50 304.00,153.68 304.00,154.14 C304.00,155.17 316.97,188.76 321.32,199.00 C324.38,206.21 324.50,207.02 324.46,220.00 C324.43,230.55 324.05,234.35 322.70,237.40 C321.75,239.55 321.17,241.51 321.42,241.75 C321.66,241.99 324.70,241.06 328.18,239.68 C338.37,235.64 342.96,234.68 352.50,234.59 C368.07,234.44 375.94,238.86 389.28,255.26 C396.38,263.99 397.30,272.75 391.75,278.74 L 389.67 280.98 L 388.56 278.74 C386.97,275.55 382.61,273.78 375.02,273.23 C361.34,272.25 351.03,280.49 342.02,299.59 C335.01,314.44 330.99,322.16 329.20,324.25 C325.85,328.14 307.32,325.72 295.76,319.88 C286.29,315.10 272.83,300.11 266.12,286.86 C265.38,285.41 263.74,283.75 262.47,283.17 C259.83,281.96 259.76,282.03 255.57,289.35 C252.68,294.41 252.65,295.48 255.14,303.77 C256.37,307.86 256.31,308.14 253.74,310.71 C251.33,313.13 250.28,313.41 243.28,313.55 C239.00,313.63 233.86,314.04 231.85,314.44 C229.35,314.95 227.14,314.71 224.85,313.68 C223.01,312.85 218.55,311.97 214.95,311.72 C211.35,311.47 206.94,310.51 205.15,309.58 C201.88,307.89 197.43,308.27 198.60,310.15 C198.94,310.71 197.58,313.54 195.58,316.45 C193.58,319.35 191.74,323.32 191.49,325.26 C191.06,328.61 191.21,328.82 194.49,329.43 C196.96,329.90 198.71,329.58 200.62,328.33 C203.23,326.62 203.27,326.62 202.24,328.54 C199.79,333.08 196.44,335.02 189.63,335.84 C184.10,336.51 182.23,336.33 178.86,334.83 ZM 191.31 309.93 C193.47,309.33 194.96,308.36 194.74,307.69 C194.23,306.12 188.09,303.11 185.29,303.05 C183.21,303.00 181.27,305.25 181.45,307.50 C181.74,311.05 184.67,311.78 191.31,309.93 ZM 289.47 243.36 C293.14,237.55 295.93,232.25 295.67,231.57 C294.87,229.49 281.92,225.64 271.50,224.39 C267.54,223.91 267.52,223.93 269.64,225.70 C270.82,226.69 273.18,228.27 274.89,229.20 C276.60,230.14 278.00,231.44 278.00,232.08 C278.00,233.24 276.93,233.18 265.87,231.39 C263.59,231.03 261.97,231.24 261.51,231.98 C260.57,233.50 264.63,237.81 267.37,238.20 C268.73,238.39 269.54,239.26 269.61,240.61 C269.67,241.77 272.10,245.70 275.02,249.34 C278.95,254.24 280.66,255.70 281.57,254.94 C282.25,254.38 285.81,249.17 289.47,243.36 Z" fill="rgba(196,4,67,1)"/>
<path d="M 146.00 430.08 C146.00,429.06 185.80,383.18 195.72,372.75 C199.12,369.19 200.82,368.11 202.54,368.42 C205.75,369.00 208.12,370.41 210.89,373.37 C212.92,375.54 213.16,376.48 212.51,379.71 C210.66,388.80 212.28,392.95 216.24,389.26 C217.48,388.10 219.70,386.85 221.17,386.49 C224.38,385.69 226.00,388.00 226.00,393.38 C226.00,397.35 228.77,399.99 232.97,400.02 C236.54,400.04 238.32,401.42 237.62,403.63 C236.49,407.14 226.32,416.49 220.03,419.79 L 213.75 423.08 L 214.24 420.52 C214.95,416.82 213.87,416.70 208.80,419.91 C206.33,421.48 202.56,423.32 200.41,424.02 C198.26,424.71 195.60,425.66 194.50,426.13 C189.27,428.37 183.69,429.93 182.84,429.40 C182.29,429.06 182.54,427.82 183.45,426.44 C185.46,423.37 185.41,422.62 183.25,423.48 C182.29,423.86 180.82,424.32 180.00,424.51 C179.18,424.70 176.53,425.56 174.12,426.42 C171.72,427.29 168.65,428.00 167.31,428.00 C165.97,428.00 164.11,428.39 163.18,428.88 C160.39,430.33 146.00,431.34 146.00,430.08 ZM 157.04 326.33 C150.45,323.05 149.24,321.50 151.39,319.12 C153.00,317.34 152.79,317.25 146.05,316.77 C140.40,316.37 137.97,315.62 133.50,312.91 C130.45,311.06 126.55,308.10 124.82,306.32 C122.19,303.60 121.89,302.84 122.97,301.54 C124.03,300.26 123.97,300.00 122.59,300.00 C120.46,300.00 111.46,295.50 107.21,292.30 C105.40,290.95 102.10,287.53 99.87,284.72 C96.02,279.84 95.93,279.57 97.92,278.84 C101.09,277.66 100.43,276.46 95.75,274.92 C90.24,273.11 79.26,262.40 75.16,254.85 L 72.09 249.19 L 74.55 248.58 C75.90,248.24 76.98,247.63 76.95,247.23 C76.92,246.83 74.78,245.12 72.20,243.42 C65.59,239.10 58.66,230.08 55.06,221.13 C51.31,211.82 51.22,210.59 54.35,211.37 C58.43,212.40 58.24,210.71 53.80,206.38 C44.55,197.36 40.18,189.31 37.50,176.35 C35.87,168.44 36.17,166.45 38.85,167.52 C39.76,167.88 46.35,169.74 53.50,171.65 C60.65,173.57 72.35,176.71 79.50,178.64 C86.65,180.57 98.57,183.74 106.00,185.68 C113.43,187.61 124.45,190.54 130.50,192.19 C136.55,193.83 145.10,196.08 149.50,197.17 C153.90,198.27 162.20,200.55 167.95,202.24 C173.70,203.93 179.78,205.35 181.45,205.40 C183.13,205.46 184.73,205.76 185.00,206.09 C185.27,206.41 187.30,207.17 189.50,207.78 C209.57,213.36 219.07,216.06 222.24,217.10 C225.11,218.04 226.58,218.06 228.53,217.17 C230.60,216.23 231.55,216.31 233.54,217.62 C234.89,218.50 236.00,219.63 236.00,220.12 C236.00,220.60 236.87,221.00 237.92,221.00 C238.98,221.00 243.54,222.89 248.05,225.21 C256.99,229.79 266.91,238.68 275.47,249.75 C280.80,256.65 281.22,256.66 285.19,250.14 C286.40,248.14 290.77,241.32 294.90,235.00 C303.60,221.68 306.77,214.52 307.63,206.23 C308.28,200.08 307.96,199.34 302.11,193.30 C300.18,191.31 298.94,192.89 298.33,198.13 C297.63,204.12 294.23,210.47 289.79,214.04 C286.41,216.76 285.72,216.95 282.02,216.12 C279.79,215.61 276.92,214.52 275.64,213.68 C274.12,212.69 269.83,211.99 263.20,211.67 C257.63,211.39 252.66,210.91 252.14,210.59 C250.99,209.88 236.26,207.68 233.50,207.81 C232.40,207.86 230.88,208.82 230.13,209.95 C228.02,213.10 224.32,212.56 221.96,208.75 C218.82,203.65 218.41,200.90 220.58,199.32 C222.24,198.10 222.29,197.70 221.05,195.73 C217.71,190.43 217.01,188.17 217.01,182.66 C217.00,177.73 217.30,176.73 218.92,176.31 C220.74,175.84 220.76,175.58 219.36,171.65 C218.37,168.91 217.98,164.78 218.18,159.50 L 218.50 151.50 L 213.73 151.36 C208.81,151.21 206.91,152.64 207.54,156.00 C209.04,163.98 209.16,166.00 208.15,166.00 C207.54,166.00 203.14,164.20 198.38,162.00 C188.00,157.21 183.40,156.80 181.98,160.57 C181.44,161.98 181.00,164.45 181.00,166.07 C181.00,169.38 179.09,170.05 178.29,167.00 C178.00,165.90 177.14,165.00 176.38,165.00 C175.35,165.00 175.00,163.41 175.01,158.75 C175.03,149.73 175.69,147.88 178.61,148.62 C181.39,149.31 181.47,148.88 179.53,143.50 C177.36,137.47 177.58,125.14 179.96,119.58 C182.02,114.79 182.82,114.22 184.78,116.18 C186.71,118.11 187.47,116.20 186.19,112.65 C184.09,106.85 184.73,99.50 188.02,91.68 C189.68,87.73 191.94,83.38 193.04,82.00 L 195.03 79.50 L 197.33 82.28 L 199.62 85.05 L 199.58 76.78 C199.55,69.25 199.88,67.82 203.20,61.00 C207.10,52.99 213.27,45.00 215.54,45.00 C216.31,45.00 217.41,45.90 218.00,47.00 C219.80,50.36 220.69,49.27 221.35,42.90 C222.25,34.29 226.85,26.07 235.69,17.25 C239.69,13.26 243.79,10.00 244.80,10.00 C246.24,10.00 247.73,12.75 251.47,22.25 C271.79,73.93 283.61,103.75 286.64,111.00 C288.59,115.68 291.68,123.83 293.50,129.12 C295.33,134.41 297.29,139.59 297.86,140.62 C298.43,141.65 299.15,144.13 299.46,146.11 C299.78,148.10 300.93,150.53 302.02,151.52 C303.11,152.50 304.00,153.68 304.00,154.14 C304.00,155.17 316.97,188.76 321.32,199.00 C324.38,206.21 324.50,207.02 324.46,220.00 C324.43,230.55 324.05,234.35 322.70,237.40 C321.75,239.55 321.17,241.51 321.42,241.75 C321.66,241.99 324.70,241.06 328.18,239.68 C338.37,235.64 342.96,234.68 352.50,234.59 C368.07,234.44 375.94,238.86 389.28,255.26 C396.38,263.99 397.30,272.75 391.75,278.74 L 389.67 280.98 L 388.56 278.74 C386.73,275.08 382.28,273.53 373.50,273.52 C366.39,273.50 364.83,273.86 359.50,276.71 C346.42,283.71 344.15,284.47 341.42,282.77 C340.83,282.40 336.21,281.82 331.16,281.49 C326.11,281.15 320.97,280.68 319.74,280.43 C318.51,280.17 315.36,279.72 312.75,279.42 C308.88,278.97 308.00,279.15 308.00,280.42 C308.00,284.24 323.20,290.93 333.48,291.64 C346.09,292.51 345.47,291.67 340.89,301.75 C335.73,313.12 331.08,322.06 329.20,324.25 C328.04,325.59 326.15,326.00 321.10,325.99 C305.90,325.95 293.20,320.54 282.70,309.62 C274.04,300.61 269.43,293.49 259.29,273.50 C247.18,249.62 246.54,248.52 244.43,248.25 C243.37,248.11 241.43,248.83 240.13,249.84 C238.11,251.42 237.93,252.01 238.92,253.84 C239.65,255.22 239.74,256.63 239.16,257.75 C238.66,258.71 238.61,260.40 239.06,261.50 C239.50,262.60 239.89,264.86 239.93,266.53 C239.97,268.19 240.70,270.56 241.56,271.79 C243.33,274.31 242.81,276.99 239.74,281.13 C238.66,282.60 237.98,284.41 238.24,285.15 C238.50,285.89 237.76,287.07 236.60,287.76 C234.63,288.94 234.68,288.98 237.25,288.40 C238.76,288.06 240.00,288.01 240.00,288.28 C240.00,289.23 231.83,301.00 230.65,301.74 C229.99,302.16 228.67,303.74 227.71,305.24 C224.03,311.02 212.50,312.95 207.33,308.65 C205.40,307.05 202.71,306.12 198.86,305.73 C192.06,305.05 187.31,302.76 185.80,299.45 C184.99,297.68 183.89,297.00 181.80,297.00 C178.43,297.00 172.03,293.94 166.79,289.82 C163.15,286.95 163.03,286.93 160.29,288.63 C152.81,293.28 151.27,296.77 154.95,300.72 C156.62,302.50 157.46,302.68 160.70,301.93 C166.62,300.56 177.00,300.76 177.00,302.25 C177.00,302.94 175.06,305.06 172.70,306.95 C167.49,311.13 162.49,317.33 163.95,317.82 C164.53,318.01 164.79,318.53 164.52,318.97 C163.62,320.43 166.48,321.86 170.94,322.18 C176.00,322.55 177.16,324.22 173.81,326.32 C169.50,329.03 162.46,329.03 157.04,326.33 Z" fill="rgba(223,11,59,1)"/>
<path d="M 146.00 430.08 C146.00,428.27 192.05,376.52 193.96,376.20 C196.25,375.81 201.00,381.42 201.00,384.52 C201.00,387.18 202.65,388.59 205.25,388.16 C207.14,387.85 207.27,388.34 207.02,394.68 C206.85,399.18 208.55,400.91 213.74,401.48 C215.11,401.63 216.54,402.26 216.92,402.87 C217.42,403.68 218.17,403.58 219.56,402.53 C222.54,400.27 222.90,400.63 222.78,405.83 C222.63,412.27 223.43,413.34 227.88,412.68 L 231.50 412.14 L 228.91 414.15 C227.48,415.25 223.49,417.72 220.03,419.64 L 213.74 423.12 L 214.24 420.54 C214.95,416.82 213.87,416.70 208.80,419.91 C206.33,421.48 202.56,423.32 200.41,424.02 C198.26,424.71 195.60,425.66 194.50,426.13 C189.27,428.37 183.69,429.93 182.84,429.40 C182.29,429.06 182.54,427.82 183.45,426.44 C185.46,423.37 185.41,422.62 183.25,423.48 C182.29,423.86 180.82,424.32 180.00,424.51 C179.18,424.70 176.53,425.56 174.12,426.42 C171.72,427.29 168.65,428.00 167.31,428.00 C165.97,428.00 164.11,428.39 163.18,428.88 C160.40,430.33 146.00,431.34 146.00,430.08 ZM 304.50 323.60 C296.19,320.96 289.44,316.63 282.70,309.62 C274.05,300.62 269.44,293.51 259.28,273.50 C254.81,264.70 249.88,255.09 248.34,252.13 C245.38,246.50 240.47,241.00 238.40,241.00 C237.73,241.00 235.99,239.59 234.54,237.86 C232.62,235.58 230.82,234.60 227.95,234.27 C225.55,233.99 224.00,234.23 224.00,234.87 C224.00,236.23 227.30,238.00 229.83,238.00 C232.59,238.00 233.36,240.74 230.96,242.02 C228.61,243.28 228.50,244.35 230.50,246.36 C232.83,248.69 232.29,251.10 228.75,254.15 C225.56,256.89 225.54,256.96 227.75,257.59 C228.99,257.94 230.00,258.54 230.00,258.90 C230.00,259.78 218.08,267.56 215.50,268.37 C213.06,269.13 206.00,275.50 206.00,276.94 C206.00,277.51 206.85,278.52 207.90,279.17 C209.33,280.06 209.51,280.64 208.65,281.53 C208.02,282.18 205.02,285.51 202.00,288.93 C196.38,295.29 189.62,299.82 188.50,297.99 C188.16,297.45 185.87,297.00 183.41,297.00 C178.10,297.00 171.61,293.91 164.59,288.03 C159.00,283.34 156.33,283.09 156.82,287.27 C157.05,289.18 156.59,290.24 155.32,290.76 C150.51,292.75 141.84,298.43 140.88,300.22 C140.29,301.33 139.99,303.75 140.20,305.61 C140.42,307.48 140.19,309.00 139.69,309.00 C138.47,309.00 139.86,314.29 141.33,315.22 C142.06,315.69 141.71,315.98 140.41,315.98 C137.94,316.00 127.55,309.43 124.10,305.67 C122.11,303.50 121.92,302.80 122.98,301.53 C124.03,300.26 123.96,300.00 122.59,300.00 C120.46,300.00 111.46,295.50 107.21,292.30 C105.40,290.95 102.10,287.53 99.87,284.72 C96.02,279.84 95.93,279.57 97.92,278.84 C101.09,277.66 100.43,276.46 95.75,274.92 C90.24,273.11 79.26,262.40 75.16,254.85 L 72.09 249.19 L 74.55 248.58 C75.90,248.24 76.98,247.63 76.95,247.23 C76.92,246.83 74.78,245.12 72.20,243.42 C65.59,239.10 58.66,230.08 55.06,221.13 C51.31,211.82 51.22,210.59 54.35,211.37 C58.43,212.40 58.24,210.71 53.80,206.38 C44.55,197.36 40.18,189.31 37.50,176.35 C35.87,168.44 36.17,166.45 38.85,167.52 C39.76,167.88 46.24,169.71 53.25,171.59 C60.26,173.47 71.96,176.61 79.25,178.58 C86.54,180.54 98.57,183.74 106.00,185.68 C113.43,187.61 124.45,190.54 130.50,192.19 C136.55,193.83 145.10,196.08 149.50,197.17 C153.90,198.27 162.20,200.55 167.95,202.24 C173.70,203.93 179.78,205.35 181.45,205.40 C183.13,205.46 184.73,205.76 185.00,206.09 C185.27,206.41 187.30,207.17 189.50,207.78 C191.70,208.39 199.35,210.54 206.50,212.55 C213.65,214.55 224.90,217.62 231.50,219.35 C239.06,221.34 246.02,223.93 250.32,226.34 C257.76,230.52 267.87,239.94 275.49,249.79 C281.27,257.26 280.25,257.80 290.56,241.86 C301.77,224.54 304.76,219.03 306.45,212.54 C308.20,205.81 308.49,198.42 307.03,197.52 C306.49,197.19 305.55,195.03 304.92,192.72 C303.47,187.31 300.36,182.92 298.49,183.64 C297.70,183.94 295.94,183.31 294.57,182.23 C293.19,181.15 291.04,180.33 289.79,180.40 C287.32,180.53 287.14,181.67 288.55,187.93 L 289.32 191.35 L 284.91 187.93 C282.48,186.04 280.27,184.24 280.00,183.92 C279.73,183.61 277.71,182.14 275.52,180.67 C270.62,177.39 264.90,177.06 262.87,179.96 C261.51,181.90 261.45,181.90 256.00,179.85 C252.98,178.71 248.54,177.30 246.15,176.70 C242.08,175.69 241.68,175.78 239.95,178.06 C238.67,179.76 237.34,180.40 235.55,180.18 C234.11,180.00 233.00,180.36 233.00,181.01 C233.00,182.75 226.91,181.16 224.26,178.73 C220.84,175.59 218.00,168.87 218.01,163.93 C218.01,157.73 219.82,151.86 221.89,151.32 C223.34,150.94 223.61,149.68 223.56,143.68 C223.52,139.29 224.24,134.06 225.42,130.22 C226.56,126.48 226.96,123.61 226.42,123.14 C225.91,122.70 222.59,122.61 219.03,122.92 L 212.56 123.50 L 211.44 127.50 C210.64,130.39 209.73,131.59 208.16,131.82 C206.97,132.00 206.00,132.56 206.00,133.07 C206.00,134.90 203.12,133.94 197.85,130.36 C194.91,128.36 190.50,125.83 188.06,124.73 L 183.63 122.74 L 181.90 124.87 C179.93,127.31 178.00,127.66 178.00,125.58 C178.00,123.45 181.81,115.00 182.76,115.00 C183.22,115.00 184.13,115.53 184.78,116.18 C186.71,118.11 187.47,116.20 186.19,112.65 C184.09,106.85 184.73,99.50 188.02,91.68 C189.68,87.73 191.94,83.38 193.04,82.00 L 195.03 79.50 L 197.33 82.28 L 199.62 85.05 L 199.58 76.78 C199.55,69.25 199.88,67.82 203.20,61.00 C207.10,52.99 213.27,45.00 215.54,45.00 C216.31,45.00 217.41,45.90 218.00,47.00 C219.80,50.36 220.69,49.27 221.35,42.90 C222.25,34.29 226.85,26.07 235.69,17.25 C239.69,13.26 243.79,10.00 244.80,10.00 C246.24,10.00 247.73,12.75 251.47,22.25 C271.79,73.93 283.61,103.75 286.64,111.00 C288.59,115.68 291.68,123.83 293.50,129.12 C295.33,134.41 297.29,139.59 297.86,140.62 C298.43,141.65 299.15,144.13 299.46,146.11 C299.78,148.10 300.93,150.53 302.02,151.52 C303.11,152.50 304.00,153.68 304.00,154.14 C304.00,155.17 316.97,188.76 321.32,199.00 C324.38,206.21 324.50,207.02 324.46,220.00 C324.43,230.55 324.05,234.35 322.70,237.40 C321.75,239.55 321.17,241.51 321.42,241.75 C321.66,241.99 324.70,241.06 328.18,239.68 C338.37,235.64 342.96,234.68 352.50,234.59 C368.07,234.44 375.94,238.86 389.28,255.26 C396.38,263.99 397.30,272.75 391.75,278.74 L 389.67 280.98 L 388.56 278.74 C387.94,277.51 386.15,275.88 384.57,275.12 C380.76,273.29 369.92,272.48 366.27,273.75 C364.14,274.50 362.33,274.40 359.43,273.37 C356.94,272.48 351.30,271.96 344.00,271.96 C331.91,271.95 320.17,270.86 306.00,268.44 C301.33,267.64 296.71,266.99 295.75,266.99 C290.32,267.01 297.92,275.98 310.26,284.11 C315.08,287.28 319.92,290.16 321.01,290.50 C322.11,290.85 323.04,291.67 323.09,292.32 C323.43,296.68 322.61,302.66 321.42,304.49 C320.64,305.67 319.73,309.31 319.39,312.57 C318.81,318.08 318.46,318.74 314.54,321.75 C309.80,325.39 310.01,325.35 304.50,323.60 Z" fill="rgba(229,41,52,1)"/>
<path d="M 146.00 430.07 C146.00,428.99 181.74,387.74 184.83,385.25 C189.07,381.84 196.00,386.77 196.00,393.20 C196.00,397.10 197.40,398.23 201.05,397.28 C203.09,396.74 203.23,396.95 202.63,399.60 C200.74,407.82 200.74,409.68 202.60,410.40 C206.16,411.77 214.84,412.16 216.92,411.04 C218.06,410.43 219.00,410.28 219.00,410.71 C218.99,413.56 207.58,421.71 200.34,424.04 C198.23,424.72 195.60,425.66 194.50,426.13 C189.27,428.37 183.69,429.93 182.84,429.40 C182.29,429.06 182.54,427.82 183.45,426.44 C185.46,423.37 185.41,422.62 183.25,423.48 C182.29,423.86 180.82,424.32 180.00,424.51 C179.18,424.70 176.53,425.56 174.12,426.42 C171.72,427.29 168.65,428.00 167.31,428.00 C165.97,428.00 164.11,428.39 163.18,428.88 C160.37,430.34 146.00,431.34 146.00,430.07 ZM 286.91 313.24 C278.93,307.87 270.74,296.09 259.29,273.50 C244.81,244.93 242.95,241.89 236.56,236.26 C231.20,231.54 220.75,227.04 213.41,226.28 L 208.31 225.75 L 208.77 228.89 C209.02,230.61 208.67,232.69 207.99,233.51 C206.36,235.48 208.33,238.00 211.50,238.00 C215.63,238.00 220.08,239.25 219.73,240.31 C219.54,240.89 214.95,242.38 209.54,243.61 C200.31,245.73 197.60,247.14 198.34,249.48 C198.52,250.02 200.65,250.84 203.08,251.29 C210.32,252.62 210.83,252.96 208.00,254.54 C206.62,255.30 203.38,256.65 200.78,257.53 C195.83,259.22 185.60,267.54 186.56,269.09 C186.87,269.59 189.15,270.00 191.64,270.00 C197.73,270.00 197.00,271.37 188.25,276.39 C184.31,278.65 178.98,282.41 176.39,284.75 C171.08,289.56 169.00,290.09 169.00,286.64 C169.00,284.58 168.39,284.19 164.37,283.64 C158.42,282.82 154.35,280.26 148.03,273.35 L 142.95 267.78 L 137.48 270.64 C134.47,272.21 131.03,274.23 129.83,275.13 C127.05,277.22 125.92,284.40 127.78,288.21 C128.75,290.19 128.82,291.46 128.05,292.90 C126.60,295.63 126.71,296.00 129.00,296.00 C132.24,296.00 131.29,298.68 127.75,299.50 C123.28,300.54 121.31,300.19 115.51,297.29 C108.43,293.74 104.52,290.60 99.87,284.72 C96.02,279.84 95.93,279.57 97.92,278.84 C101.09,277.66 100.43,276.46 95.75,274.92 C90.24,273.11 79.26,262.40 75.16,254.85 L 72.09 249.19 L 74.55 248.58 C75.90,248.24 76.98,247.63 76.95,247.23 C76.92,246.83 74.78,245.12 72.20,243.42 C65.59,239.10 58.66,230.08 55.06,221.13 C51.31,211.82 51.22,210.59 54.35,211.37 C58.43,212.40 58.24,210.71 53.80,206.38 C44.55,197.36 40.18,189.31 37.50,176.35 C35.87,168.44 36.17,166.45 38.85,167.52 C39.76,167.88 46.24,169.71 53.25,171.59 C60.26,173.47 71.96,176.61 79.25,178.58 C86.54,180.54 98.57,183.74 106.00,185.68 C113.43,187.61 124.45,190.54 130.50,192.19 C136.55,193.83 145.10,196.08 149.50,197.17 C153.90,198.27 162.20,200.55 167.95,202.24 C173.70,203.93 179.78,205.35 181.45,205.40 C183.13,205.46 184.73,205.76 185.00,206.09 C185.27,206.41 187.30,207.17 189.50,207.78 C191.70,208.39 199.35,210.54 206.50,212.55 C213.65,214.55 224.90,217.62 231.50,219.35 C250.11,224.25 260.88,231.45 273.69,247.55 C282.38,258.46 288.36,265.31 298.25,275.62 C303.61,281.21 308.00,286.20 308.00,286.71 C308.00,287.21 306.62,288.95 304.92,290.56 C300.89,294.41 294.00,304.76 294.00,306.96 C294.00,309.01 291.15,315.00 290.18,314.99 C289.80,314.99 288.33,314.20 286.91,313.24 ZM 131.92 258.95 C129.75,257.61 128.54,259.19 130.59,260.69 C131.94,261.68 132.59,261.74 132.86,260.92 C133.07,260.29 132.65,259.40 131.92,258.95 ZM 382.49 269.95 C374.58,267.14 362.69,265.67 347.00,265.55 C339.02,265.49 325.41,264.57 316.75,263.50 C298.84,261.29 298.36,260.92 304.46,254.17 C309.06,249.09 319.26,241.72 322.17,241.40 C323.45,241.26 328.55,239.69 333.50,237.92 C341.09,235.20 343.99,234.68 352.00,234.60 C364.86,234.46 372.21,237.21 379.99,245.06 C388.52,253.66 392.97,259.55 394.64,264.47 C396.01,268.49 396.02,269.13 394.66,270.48 C392.75,272.40 388.89,272.23 382.49,269.95 ZM 321.49 232.76 C320.34,230.14 317.62,229.38 314.62,230.83 C312.32,231.95 307.89,232.79 301.33,233.34 C297.36,233.68 297.21,233.59 298.02,231.44 C298.50,230.19 300.24,226.77 301.89,223.84 C305.26,217.86 308.00,208.47 308.00,202.88 C308.00,200.85 306.67,193.86 305.05,187.34 C303.43,180.83 301.12,171.00 299.92,165.50 C297.96,156.50 296.88,154.06 294.84,154.02 C294.48,154.01 293.87,156.36 293.48,159.25 C292.37,167.54 291.47,167.87 285.58,162.21 C278.67,155.55 275.11,153.26 270.99,152.86 L 267.50 152.51 L 267.72 157.76 C267.84,160.64 267.67,163.00 267.34,163.00 C267.01,163.00 263.71,160.75 260.01,158.01 C250.97,151.31 246.95,149.66 243.30,151.17 C241.76,151.81 240.27,152.39 240.00,152.45 C239.73,152.51 237.55,153.82 235.17,155.34 C231.52,157.69 230.60,157.92 229.27,156.81 C226.74,154.72 224.05,147.85 224.02,143.43 C223.97,134.69 228.72,124.91 232.33,126.30 C233.40,126.71 233.87,125.49 234.28,121.17 C234.81,115.71 240.78,100.87 243.00,99.50 C245.00,98.27 243.91,95.48 239.79,91.29 C235.91,87.33 232.65,85.89 231.83,87.77 C231.65,88.19 229.93,89.76 228.00,91.24 C224.78,93.73 224.50,94.38 224.50,99.23 C224.50,104.32 224.41,104.50 221.75,104.46 C220.24,104.44 219.00,104.81 219.00,105.28 C219.00,106.94 214.76,104.75 207.67,99.43 C198.25,92.35 195.64,92.23 190.63,98.66 C188.62,101.25 186.99,104.48 186.98,105.91 C186.98,107.34 186.53,109.18 186.00,110.00 C185.32,111.06 185.03,109.63 185.02,105.18 C185.00,98.47 188.91,87.15 193.04,82.00 L 195.03 79.50 L 197.33 82.28 L 199.62 85.05 L 199.58 76.78 C199.55,69.25 199.88,67.82 203.20,61.00 C207.10,52.99 213.27,45.00 215.54,45.00 C216.31,45.00 217.41,45.90 218.00,47.00 C219.80,50.36 220.69,49.27 221.35,42.90 C222.25,34.29 226.85,26.07 235.69,17.25 C239.69,13.26 243.79,10.00 244.80,10.00 C246.24,10.00 247.73,12.75 251.47,22.25 C271.79,73.93 283.61,103.75 286.64,111.00 C288.59,115.68 291.68,123.83 293.50,129.12 C295.33,134.41 297.29,139.59 297.86,140.62 C298.43,141.65 299.15,144.13 299.46,146.11 C299.78,148.10 300.93,150.53 302.02,151.52 C303.11,152.50 304.00,153.68 304.00,154.14 C304.00,155.00 315.89,186.01 321.17,198.94 C324.58,207.28 325.74,217.30 324.55,228.35 C323.80,235.39 323.09,236.41 321.49,232.76 Z" fill="rgba(237,97,46,1)"/>
<path d="M 146.00 430.05 C146.00,428.81 168.12,403.52 171.68,400.70 C173.89,398.94 174.05,398.96 177.71,401.45 C179.77,402.85 182.09,404.00 182.86,404.00 C183.96,404.00 184.12,405.07 183.60,408.95 C183.02,413.35 183.18,414.03 185.09,415.05 C186.28,415.68 188.56,415.94 190.17,415.62 C193.28,414.99 193.27,415.67 190.12,419.33 C188.64,421.05 183.40,423.73 180.00,424.51 C179.18,424.69 176.53,425.56 174.12,426.42 C171.72,427.29 168.65,428.00 167.31,428.00 C165.97,428.00 164.11,428.39 163.18,428.88 C160.35,430.35 146.00,431.34 146.00,430.05 ZM 182.69 429.36 C182.04,428.71 184.99,422.99 185.97,423.02 C186.26,423.02 188.52,423.65 191.00,424.41 C193.84,425.28 194.95,426.01 194.00,426.38 C191.99,427.17 183.80,430.00 183.54,430.00 C183.43,430.00 183.05,429.71 182.69,429.36 ZM 197.25 418.34 C195.61,417.68 195.67,415.19 197.43,410.20 L 198.86 406.15 L 195.91 407.18 C191.55,408.70 190.00,406.93 190.00,400.43 C190.00,395.25 189.89,395.05 185.79,392.61 C182.44,390.61 181.27,390.34 180.04,391.27 C178.30,392.59 182.70,387.17 184.93,385.25 C188.97,381.77 196.00,386.81 196.00,393.20 C196.00,397.10 197.40,398.23 201.05,397.28 C203.09,396.74 203.23,396.95 202.63,399.60 C200.74,407.82 200.74,409.68 202.60,410.40 C206.16,411.77 214.84,412.16 216.92,411.04 C218.06,410.43 219.00,410.28 219.00,410.71 C219.00,411.99 214.68,416.59 212.32,417.84 C210.17,418.98 199.70,419.32 197.25,418.34 ZM 286.91 313.24 C284.02,311.30 280.36,307.51 275.58,301.50 C271.78,296.72 266.19,287.97 268.07,289.75 C270.19,291.75 273.00,291.28 273.00,288.93 C273.00,286.00 274.81,283.00 276.58,283.00 C277.40,283.00 279.82,283.89 281.94,284.97 C285.79,286.93 285.82,286.93 288.33,284.95 C291.05,282.82 293.58,276.75 293.11,273.50 C292.95,272.40 292.09,270.60 291.20,269.50 C290.31,268.40 293.30,271.10 297.86,275.50 C309.08,286.34 309.02,286.17 304.04,291.57 C299.09,296.94 294.00,304.78 294.00,307.04 C294.00,309.03 291.13,315.00 290.18,314.99 C289.80,314.99 288.33,314.20 286.91,313.24 ZM 121.91 299.95 C114.26,297.89 105.53,291.88 99.93,284.79 L 95.94 279.74 L 98.52 278.41 C99.94,277.67 102.37,277.32 103.96,277.64 C108.78,278.61 117.74,275.00 116.30,272.68 C115.93,272.08 115.60,270.26 115.56,268.64 C115.51,266.24 114.90,265.48 112.29,264.59 C107.28,262.88 106.58,261.71 108.41,258.16 C109.29,256.48 110.00,254.04 110.00,252.75 C110.00,251.00 110.84,250.10 113.32,249.20 C115.15,248.54 117.37,248.00 118.25,248.00 C120.27,248.00 123.21,245.15 122.45,243.92 C121.69,242.69 123.67,242.75 126.07,244.04 C127.13,244.60 128.00,245.99 128.00,247.11 C128.00,252.04 137.83,262.72 145.50,266.11 C148.25,267.33 149.94,268.51 149.25,268.75 C147.15,269.45 147.85,272.49 150.75,275.20 C153.29,277.57 159.06,281.00 160.52,281.00 C160.86,281.00 160.85,278.63 160.49,275.73 C159.71,269.55 160.31,268.78 169.27,264.45 C177.93,260.26 179.09,257.84 173.06,256.51 C169.27,255.68 168.02,254.06 169.06,251.31 C170.23,248.23 173.47,246.38 181.06,244.49 C189.63,242.35 191.10,241.42 188.73,239.61 C187.76,238.86 185.28,237.97 183.23,237.63 C178.05,236.76 176.65,235.67 177.46,233.12 C178.46,229.98 180.67,229.20 190.56,228.49 C195.47,228.13 199.67,227.66 199.89,227.45 C200.74,226.59 197.33,223.69 189.10,218.27 C182.73,214.08 181.00,212.50 182.41,212.20 C183.72,211.92 182.21,210.86 177.61,208.83 C168.20,204.69 166.08,205.53 173.50,210.46 C176.77,212.62 180.44,215.55 181.66,216.95 L 183.89 219.50 L 181.53 221.89 C179.52,223.93 177.76,224.40 169.59,225.09 C158.76,226.00 158.53,226.10 154.06,231.24 L 150.80 234.99 L 155.15 236.85 C157.54,237.87 160.51,239.03 161.75,239.42 C162.99,239.81 164.00,240.46 164.00,240.85 C164.00,241.97 159.02,244.57 153.33,246.42 C146.94,248.51 144.55,251.62 145.77,256.28 C147.69,263.60 144.44,265.05 137.90,259.80 C131.55,254.70 127.70,247.00 131.50,247.00 C134.21,247.00 133.07,245.54 128.45,243.08 C125.95,241.76 122.95,239.34 121.80,237.72 C119.77,234.87 119.66,234.84 118.60,236.78 C117.53,238.73 117.36,238.74 113.00,237.12 C107.87,235.22 106.94,232.86 109.86,229.11 L 111.72 226.72 L 113.86 228.86 C117.53,232.53 118.09,231.21 114.95,226.26 C112.80,222.88 112.11,220.78 112.52,218.92 C113.10,216.26 112.10,214.88 108.68,213.66 C107.19,213.13 106.99,213.39 107.54,215.13 C108.41,217.87 106.65,218.97 101.33,218.98 C96.02,219.00 94.01,219.79 93.98,221.86 C93.97,222.76 93.06,225.47 91.97,227.88 C89.53,233.25 90.24,234.38 97.04,236.01 C103.52,237.56 106.87,240.20 106.29,243.29 C105.83,245.67 102.16,247.32 91.48,249.96 C86.27,251.25 83.83,255.07 84.68,260.59 C85.01,262.74 85.73,265.07 86.28,265.77 C86.83,266.47 87.09,267.24 86.85,267.48 C85.82,268.51 77.98,260.03 75.16,254.85 L 72.09 249.19 L 74.55 248.58 C75.90,248.24 76.98,247.63 76.95,247.23 C76.92,246.83 74.78,245.12 72.20,243.42 C65.59,239.10 58.66,230.08 55.06,221.13 C51.31,211.82 51.22,210.59 54.35,211.37 C58.43,212.40 58.24,210.71 53.80,206.38 C44.55,197.36 40.18,189.31 37.50,176.35 C35.87,168.44 36.17,166.45 38.85,167.52 C39.76,167.88 46.35,169.74 53.50,171.65 C60.65,173.57 72.35,176.71 79.50,178.64 C86.65,180.57 98.57,183.74 106.00,185.68 C113.43,187.61 124.45,190.54 130.50,192.19 C136.55,193.83 145.10,196.08 149.50,197.17 C153.90,198.27 162.20,200.55 167.95,202.24 C173.70,203.93 179.78,205.35 181.45,205.40 C183.13,205.46 184.73,205.76 185.00,206.09 C185.27,206.41 187.30,207.17 189.50,207.78 C191.70,208.39 199.35,210.54 206.50,212.55 C213.65,214.55 224.90,217.62 231.50,219.35 C246.25,223.23 254.77,227.83 263.88,236.84 C279.21,251.99 283.30,259.96 278.90,266.14 C275.57,270.82 273.98,269.98 264.65,258.67 C260.49,253.63 259.00,252.90 259.00,255.92 C259.00,258.82 257.93,261.00 256.51,261.00 C255.07,261.00 248.00,253.53 248.00,252.02 C248.00,249.87 240.84,240.03 236.52,236.22 C231.20,231.54 220.73,227.04 213.41,226.28 L 208.31 225.75 L 208.77 228.89 C209.02,230.61 208.67,232.69 207.99,233.51 C206.36,235.48 208.33,238.00 211.50,238.00 C215.63,238.00 220.08,239.25 219.73,240.31 C219.54,240.89 214.95,242.38 209.54,243.61 C200.31,245.73 197.60,247.14 198.34,249.48 C198.52,250.02 200.65,250.84 203.08,251.29 C210.32,252.62 210.83,252.96 208.00,254.54 C206.62,255.30 203.38,256.65 200.78,257.53 C195.83,259.22 185.60,267.54 186.56,269.09 C186.87,269.59 189.15,270.00 191.64,270.00 C197.73,270.00 197.00,271.37 188.25,276.39 C184.31,278.65 178.98,282.41 176.39,284.75 C171.08,289.56 169.00,290.09 169.00,286.64 C169.00,284.58 168.39,284.19 164.37,283.64 C158.42,282.82 154.35,280.26 148.03,273.35 L 142.95 267.78 L 137.48 270.64 C134.47,272.21 131.03,274.23 129.83,275.13 C127.05,277.22 125.92,284.40 127.78,288.21 C128.75,290.19 128.82,291.46 128.05,292.90 C126.60,295.63 126.71,296.00 129.00,296.00 C130.10,296.00 131.00,296.56 131.00,297.26 C131.00,298.95 124.91,300.76 121.91,299.95 ZM 131.92 258.95 C129.75,257.61 128.54,259.19 130.59,260.69 C131.94,261.68 132.59,261.74 132.86,260.92 C133.07,260.29 132.65,259.40 131.92,258.95 ZM 382.49 269.95 C374.58,267.14 362.69,265.67 347.00,265.55 C339.02,265.49 325.41,264.57 316.75,263.50 C298.84,261.29 298.36,260.92 304.46,254.17 C309.06,249.09 319.26,241.72 322.17,241.40 C323.45,241.26 328.55,239.69 333.50,237.92 C350.67,231.78 367.75,233.82 378.60,243.32 C383.13,247.28 387.05,252.19 387.37,254.29 C387.47,254.95 387.88,256.02 388.27,256.65 C389.50,258.61 386.86,258.78 375.50,257.44 C369.45,256.73 357.98,255.44 350.00,254.56 C342.02,253.68 332.22,252.52 328.21,251.98 C324.20,251.44 319.36,251.00 317.46,251.00 C314.55,251.00 314.00,250.64 313.97,248.75 C313.95,246.69 313.65,246.82 310.47,250.24 C308.56,252.29 307.00,254.39 307.00,254.91 C307.00,255.43 309.59,256.14 312.75,256.48 C315.91,256.82 321.42,257.49 325.00,257.97 C341.74,260.22 349.28,260.99 359.00,261.42 C364.77,261.68 373.77,262.68 379.00,263.64 C384.23,264.61 389.94,265.34 391.71,265.27 C395.47,265.13 397.10,268.04 394.64,270.50 C392.75,272.40 388.87,272.22 382.49,269.95 ZM 317.13 245.25 C318.40,243.63 318.35,243.61 316.50,244.97 C315.40,245.77 314.31,246.56 314.08,246.72 C313.85,246.87 314.14,247.00 314.71,247.00 C315.29,247.00 316.37,246.21 317.13,245.25 ZM 321.49 232.76 C320.34,230.14 317.62,229.38 314.62,230.83 C312.32,231.95 307.89,232.79 301.34,233.34 C296.50,233.76 296.47,234.13 302.17,223.21 C304.27,219.21 306.27,214.14 306.62,211.95 C307.12,208.87 307.55,208.21 308.54,209.03 C309.49,209.82 310.24,209.50 311.46,207.80 C313.06,205.55 313.13,205.54 314.54,207.42 C315.33,208.48 316.26,210.85 316.60,212.68 C317.02,214.91 318.19,216.59 320.11,217.73 C321.70,218.66 323.00,220.20 323.00,221.13 C323.00,222.07 323.49,223.00 324.10,223.20 C325.28,223.59 324.33,235.00 323.12,235.00 C322.77,235.00 322.03,233.99 321.49,232.76 ZM 318.99 202.99 C317.88,201.88 315.62,198.18 313.97,194.77 C312.32,191.36 309.93,187.43 308.66,186.04 C305.41,182.47 301.52,172.91 299.49,163.50 C297.94,156.30 296.84,154.06 294.84,154.02 C294.48,154.01 293.87,156.36 293.48,159.25 C292.37,167.54 291.47,167.87 285.58,162.21 C278.67,155.55 275.11,153.26 270.99,152.86 L 267.50 152.51 L 267.72 157.76 C267.84,160.64 267.67,163.00 267.34,163.00 C267.01,163.00 263.71,160.75 260.01,158.01 C250.97,151.31 246.95,149.66 243.30,151.17 C241.76,151.81 240.27,152.39 240.00,152.45 C239.73,152.51 237.55,153.82 235.17,155.34 C231.52,157.69 230.60,157.92 229.27,156.81 C226.74,154.72 224.05,147.85 224.02,143.43 C223.97,134.53 228.72,124.91 232.46,126.35 C233.47,126.73 234.02,126.35 234.05,125.22 C234.07,124.27 234.79,125.53 235.65,128.00 C239.09,138.00 248.00,141.56 248.00,132.94 C248.00,129.36 248.61,129.02 255.42,128.87 C261.15,128.73 262.35,129.29 271.12,136.15 C274.38,138.70 282.40,138.85 287.43,136.47 C289.34,135.56 291.44,135.16 292.11,135.57 C293.01,136.12 293.12,135.46 292.55,132.91 C292.13,131.03 291.55,128.42 291.25,127.10 C290.15,122.21 292.89,126.11 294.53,131.77 C295.44,134.92 296.80,138.62 297.54,140.00 C298.28,141.38 299.14,144.13 299.46,146.11 C299.78,148.10 300.93,150.53 302.02,151.52 C303.11,152.50 304.00,153.68 304.00,154.14 C304.00,155.06 316.66,188.10 320.55,197.32 C321.90,200.51 323.00,203.55 323.00,204.07 C323.00,205.62 321.12,205.12 318.99,202.99 ZM 278.29 121.08 C270.28,120.51 269.97,120.40 265.75,116.25 C261.58,112.15 259.00,110.91 259.00,113.00 C259.00,114.89 256.37,114.00 253.81,111.25 C251.63,108.90 251.23,107.48 251.07,101.52 C250.86,93.91 250.00,91.02 250.00,97.95 C250.00,102.21 249.99,102.22 247.65,100.69 C245.45,99.25 245.13,99.32 242.54,101.83 C240.13,104.16 239.92,104.22 240.89,102.31 C241.51,101.10 242.46,99.83 243.01,99.50 C245.00,98.27 243.91,95.48 239.79,91.29 C235.91,87.33 232.65,85.89 231.83,87.77 C231.65,88.19 229.93,89.76 228.00,91.24 C224.78,93.73 224.50,94.38 224.50,99.23 C224.50,104.32 224.41,104.50 221.75,104.46 C220.24,104.44 219.00,104.81 219.00,105.28 C219.00,106.94 214.76,104.75 207.67,99.43 C198.25,92.35 195.64,92.23 190.63,98.66 C188.62,101.25 186.99,104.48 186.98,105.91 C186.98,107.34 186.53,109.18 186.00,110.00 C185.32,111.06 185.03,109.63 185.02,105.18 C185.00,98.47 188.91,87.15 193.04,82.00 L 195.03 79.50 L 197.51 82.50 C199.40,84.78 199.99,85.08 200.00,83.75 C200.00,82.79 200.39,82.00 200.86,82.00 C201.33,82.00 202.12,80.09 202.61,77.75 C203.31,74.42 203.99,73.43 205.79,73.18 C207.15,72.98 209.07,71.27 210.55,68.93 C212.87,65.24 213.32,65.00 217.87,65.00 C222.70,65.00 222.75,65.03 230.98,74.04 C235.53,79.02 239.70,82.93 240.26,82.75 C240.81,82.56 241.78,80.86 242.40,78.96 L 243.53 75.50 L 250.52 75.85 C254.36,76.04 257.65,76.34 257.83,76.52 C258.02,76.69 257.22,79.01 256.06,81.67 L 253.96 86.50 L 256.66 83.11 C260.62,78.14 268.28,71.00 269.66,71.00 C270.31,71.00 273.42,77.64 276.56,85.75 C279.69,93.86 283.99,104.75 286.09,109.95 C288.93,116.96 289.64,119.73 288.84,120.70 C288.24,121.41 287.47,121.92 287.13,121.83 C286.78,121.74 282.80,121.40 278.29,121.08 ZM 241.68 109.25 C241.02,108.13 242.56,104.61 244.37,103.11 C245.75,101.96 246.11,102.15 246.98,104.46 C248.66,108.87 248.27,110.00 245.06,110.00 C243.44,110.00 241.92,109.66 241.68,109.25 ZM 238.85 58.25 C234.53,51.62 234.37,51.50 230.20,51.59 C227.25,51.65 225.53,52.26 224.55,53.59 C223.17,55.46 223.13,55.46 222.32,53.50 C221.87,52.40 221.52,48.35 221.55,44.50 C221.59,38.52 222.09,36.55 225.01,31.00 C228.80,23.78 241.79,10.00 244.80,10.00 C246.24,10.00 247.73,12.75 251.45,22.25 C254.09,28.99 257.95,38.79 260.03,44.03 C265.01,56.61 264.69,58.46 257.13,60.64 C254.03,61.53 250.61,62.88 249.53,63.63 C245.54,66.39 243.49,65.36 238.85,58.25 Z" fill="rgba(234,68,48,1)"/>
<path d="M 146.00 430.05 C146.00,428.81 168.12,403.52 171.68,400.70 C173.89,398.94 174.05,398.96 177.71,401.45 C179.77,402.85 182.09,404.00 182.86,404.00 C183.96,404.00 184.12,405.07 183.60,408.95 C183.02,413.35 183.18,414.03 185.09,415.05 C186.28,415.68 188.56,415.94 190.17,415.62 C193.28,414.99 193.27,415.67 190.12,419.33 C188.64,421.05 183.40,423.73 180.00,424.51 C179.18,424.69 176.53,425.56 174.12,426.42 C171.72,427.29 168.65,428.00 167.31,428.00 C165.97,428.00 164.11,428.39 163.18,428.88 C160.35,430.35 146.00,431.34 146.00,430.05 ZM 182.69 429.36 C182.04,428.71 184.99,422.99 185.97,423.02 C186.26,423.02 188.52,423.65 191.00,424.41 C193.84,425.28 194.95,426.01 194.00,426.38 C191.99,427.17 183.80,430.00 183.54,430.00 C183.43,430.00 183.05,429.71 182.69,429.36 ZM 271.22 266.17 C269.72,264.61 266.77,261.24 264.65,258.67 C260.49,253.63 259.00,252.90 259.00,255.92 C259.00,258.82 257.93,261.00 256.51,261.00 C255.07,261.00 248.00,253.53 248.00,252.02 C248.00,250.00 241.05,240.28 236.98,236.60 C234.65,234.49 230.66,231.87 228.12,230.76 C225.58,229.65 220.23,227.23 216.23,225.37 C212.23,223.52 208.76,222.00 208.52,222.00 C207.82,222.00 187.08,213.17 180.08,209.89 C173.83,206.96 168.00,205.22 168.00,206.28 C168.00,206.57 170.57,208.51 173.72,210.60 C176.86,212.69 180.44,215.55 181.66,216.95 L 183.89 219.50 L 181.53 221.89 C179.52,223.93 177.76,224.40 169.59,225.09 C158.76,226.00 158.53,226.10 154.06,231.24 L 150.80 234.99 L 155.15 236.85 C157.54,237.87 160.51,239.03 161.75,239.42 C162.99,239.81 164.00,240.46 164.00,240.85 C164.00,241.97 159.02,244.57 153.33,246.42 C146.94,248.51 144.55,251.62 145.77,256.28 C147.69,263.60 144.44,265.05 137.90,259.80 C131.55,254.70 127.70,247.00 131.50,247.00 C134.21,247.00 133.07,245.54 128.47,243.10 C124.51,240.99 118.00,234.00 118.00,231.84 C118.00,231.42 116.64,228.92 114.97,226.30 C112.81,222.88 112.11,220.78 112.52,218.92 C113.10,216.26 112.10,214.88 108.68,213.66 C107.19,213.13 106.99,213.39 107.54,215.13 C108.41,217.87 106.65,218.97 101.33,218.98 C96.02,219.00 94.01,219.79 93.98,221.86 C93.97,222.76 93.06,225.47 91.97,227.88 C89.53,233.25 90.24,234.38 97.04,236.01 C103.52,237.56 106.87,240.20 106.29,243.29 C105.83,245.67 102.16,247.32 91.48,249.96 C86.27,251.25 83.83,255.07 84.68,260.59 C85.01,262.74 85.73,265.07 86.28,265.77 C86.83,266.47 87.09,267.24 86.85,267.48 C85.82,268.51 77.98,260.03 75.16,254.85 L 72.09 249.19 L 74.55 248.58 C75.90,248.24 76.98,247.63 76.95,247.23 C76.92,246.83 74.78,245.12 72.20,243.42 C65.59,239.10 58.66,230.08 55.06,221.13 C51.31,211.82 51.22,210.59 54.35,211.37 C58.43,212.40 58.24,210.71 53.80,206.38 C44.55,197.36 40.18,189.31 37.50,176.35 C35.87,168.44 36.17,166.45 38.85,167.52 C39.76,167.88 46.24,169.71 53.25,171.59 C60.26,173.47 71.96,176.61 79.25,178.58 C86.54,180.54 98.57,183.74 106.00,185.68 C113.43,187.61 124.45,190.54 130.50,192.19 C136.55,193.83 145.10,196.08 149.50,197.17 C153.90,198.27 162.20,200.55 167.95,202.24 C173.70,203.93 179.78,205.35 181.45,205.40 C183.13,205.46 184.73,205.76 185.00,206.09 C185.27,206.41 187.30,207.17 189.50,207.78 C191.70,208.39 199.35,210.54 206.50,212.55 C213.65,214.55 224.90,217.62 231.50,219.35 C246.25,223.23 254.77,227.83 263.88,236.84 C279.21,251.99 283.30,259.96 278.90,266.14 C276.34,269.74 274.64,269.74 271.22,266.17 ZM 375.50 257.53 C370.00,256.84 358.75,255.54 350.50,254.63 C342.25,253.72 332.22,252.53 328.21,251.99 C324.20,251.44 319.36,251.00 317.46,251.00 C314.92,251.00 314.00,250.56 314.00,249.36 C314.00,247.33 315.95,245.76 323.04,242.07 C338.05,234.26 355.77,232.25 367.87,237.00 C376.22,240.28 386.65,249.52 387.37,254.29 C387.47,254.95 387.88,256.02 388.27,256.65 C388.82,257.52 386.55,259.48 385.67,258.89 C385.58,258.83 381.00,258.21 375.50,257.53 ZM 318.99 202.99 C317.88,201.88 315.62,198.19 313.98,194.79 C312.33,191.39 310.04,187.61 308.89,186.38 C305.20,182.45 302.06,174.13 298.45,158.63 C290.11,122.95 290.42,124.53 291.93,125.46 C292.45,125.78 293.62,128.62 294.53,131.77 C295.44,134.92 296.80,138.62 297.54,140.00 C298.28,141.38 299.14,144.13 299.46,146.11 C299.78,148.10 300.93,150.53 302.02,151.52 C303.11,152.50 304.00,153.68 304.00,154.14 C304.00,155.06 316.66,188.10 320.55,197.32 C321.90,200.51 323.00,203.55 323.00,204.07 C323.00,205.62 321.12,205.12 318.99,202.99 ZM 278.29 121.08 C270.28,120.51 269.97,120.40 265.75,116.25 C261.58,112.15 259.00,110.91 259.00,113.00 C259.00,114.88 256.37,114.00 253.81,111.25 C251.58,108.86 251.22,107.52 251.07,101.13 C250.92,95.02 251.33,92.85 253.43,88.54 C256.03,83.24 267.29,71.00 269.58,71.00 C270.29,71.00 273.38,77.54 276.56,85.75 C279.69,93.86 283.99,104.75 286.09,109.95 C288.93,116.96 289.64,119.73 288.84,120.70 C288.24,121.41 287.47,121.92 287.13,121.83 C286.78,121.74 282.80,121.40 278.29,121.08 ZM 241.68 109.25 C241.02,108.13 242.56,104.61 244.37,103.11 C245.75,101.96 246.11,102.15 246.98,104.46 C248.66,108.87 248.27,110.00 245.06,110.00 C243.44,110.00 241.92,109.66 241.68,109.25 ZM 238.85 58.25 C234.53,51.62 234.37,51.50 230.20,51.59 C227.25,51.65 225.53,52.26 224.55,53.59 C223.17,55.46 223.13,55.46 222.32,53.50 C221.87,52.40 221.52,48.35 221.55,44.50 C221.59,38.52 222.09,36.55 225.01,31.00 C228.80,23.78 241.79,10.00 244.80,10.00 C246.24,10.00 247.73,12.75 251.45,22.25 C254.09,28.99 257.95,38.79 260.03,44.03 C265.01,56.61 264.69,58.46 257.13,60.64 C254.03,61.53 250.61,62.88 249.53,63.63 C245.54,66.39 243.49,65.36 238.85,58.25 Z" fill="rgba(244,156,75,1)"/>
<path d="M 146.00 430.02 C146.00,429.38 148.55,426.01 151.67,422.53 C157.76,415.72 158.58,415.52 163.14,419.72 L 165.77 422.16 L 169.80 420.10 C173.62,418.15 178.00,413.38 178.00,411.18 C178.00,409.62 170.17,403.78 169.02,404.49 C166.60,405.98 168.28,403.17 171.00,401.15 L 174.01 398.93 L 177.74 401.47 C179.79,402.86 182.09,404.00 182.86,404.00 C183.96,404.00 184.12,405.07 183.60,408.95 C183.02,413.35 183.18,414.03 185.09,415.05 C186.28,415.68 188.56,415.94 190.17,415.62 C193.28,414.99 193.27,415.67 190.12,419.33 C188.64,421.05 183.40,423.73 180.00,424.51 C179.18,424.69 176.53,425.56 174.12,426.42 C171.72,427.29 168.65,428.00 167.31,428.00 C165.97,428.00 164.11,428.39 163.18,428.88 C160.28,430.39 146.00,431.34 146.00,430.02 ZM 182.69 429.36 C182.04,428.71 184.99,422.99 185.97,423.02 C186.26,423.02 188.52,423.65 191.00,424.41 C193.84,425.28 194.95,426.01 194.00,426.38 C191.99,427.17 183.80,430.00 183.54,430.00 C183.43,430.00 183.05,429.71 182.69,429.36 ZM 271.22 266.17 C269.72,264.61 266.77,261.24 264.65,258.67 C260.49,253.63 259.00,252.90 259.00,255.92 C259.00,258.82 257.93,261.00 256.51,261.00 C255.07,261.00 248.00,253.53 248.00,252.02 C248.00,250.00 241.05,240.28 236.98,236.60 C234.65,234.49 230.66,231.87 228.12,230.76 C225.58,229.65 220.23,227.23 216.23,225.37 C212.23,223.52 208.76,222.00 208.52,222.00 C207.82,222.00 187.08,213.17 180.08,209.89 C173.83,206.96 168.00,205.22 168.00,206.28 C168.00,206.57 170.57,208.51 173.72,210.60 C176.86,212.69 180.44,215.55 181.66,216.95 L 183.89 219.50 L 181.53 221.89 C179.52,223.93 177.76,224.40 169.59,225.09 C158.76,226.00 158.53,226.10 154.06,231.24 L 150.80 234.99 L 155.15 236.85 C157.54,237.87 160.51,239.03 161.75,239.42 C162.99,239.81 164.00,240.46 164.00,240.85 C164.00,241.97 159.02,244.57 153.33,246.42 C146.94,248.51 144.55,251.62 145.77,256.28 C147.69,263.60 144.44,265.05 137.90,259.80 C131.55,254.70 127.70,247.00 131.50,247.00 C134.21,247.00 133.07,245.54 128.47,243.10 C124.51,240.99 118.00,234.00 118.00,231.84 C118.00,231.42 116.64,228.92 114.97,226.30 C112.81,222.88 112.11,220.78 112.52,218.92 C113.10,216.26 112.10,214.88 108.68,213.66 C107.19,213.13 106.99,213.39 107.54,215.13 C108.41,217.87 106.65,218.97 101.33,218.98 C96.02,219.00 94.01,219.79 93.98,221.86 C93.97,222.76 93.06,225.47 91.97,227.88 C89.53,233.25 90.24,234.38 97.04,236.01 C103.52,237.56 106.87,240.20 106.29,243.29 C105.83,245.67 102.16,247.32 91.48,249.96 C86.27,251.25 83.83,255.07 84.68,260.59 C85.01,262.74 85.73,265.07 86.28,265.77 C86.83,266.47 87.09,267.24 86.85,267.48 C85.82,268.51 77.98,260.03 75.16,254.85 L 72.09 249.19 L 74.55 248.58 C75.90,248.24 76.98,247.63 76.95,247.23 C76.92,246.83 74.78,245.12 72.20,243.42 C65.59,239.10 58.66,230.08 55.06,221.13 C51.31,211.82 51.22,210.59 54.35,211.37 C58.43,212.40 58.24,210.71 53.80,206.38 C44.55,197.36 40.18,189.31 37.50,176.35 C35.87,168.44 36.17,166.45 38.85,167.52 C39.76,167.88 46.24,169.71 53.25,171.59 C60.26,173.47 71.96,176.61 79.25,178.58 C86.54,180.54 98.57,183.74 106.00,185.68 C113.43,187.61 124.45,190.54 130.50,192.19 C136.55,193.83 145.10,196.08 149.50,197.17 C153.90,198.27 162.20,200.55 167.95,202.24 C173.70,203.93 179.78,205.35 181.45,205.40 C183.13,205.46 184.73,205.76 185.00,206.09 C185.27,206.41 187.30,207.17 189.50,207.78 C191.70,208.39 199.35,210.54 206.50,212.56 C213.65,214.57 223.47,217.25 228.31,218.51 C233.16,219.77 237.88,221.43 238.81,222.19 C239.74,222.96 241.77,224.22 243.33,225.00 C244.88,225.78 246.57,227.19 247.07,228.14 C247.88,229.65 247.65,229.76 245.19,229.05 C243.65,228.61 240.91,227.49 239.10,226.55 C237.29,225.62 235.63,225.04 235.40,225.27 C235.17,225.50 236.77,226.49 238.95,227.48 C243.48,229.52 253.92,240.12 262.00,250.90 C267.74,258.55 269.83,261.00 270.60,261.00 C272.73,261.00 278.00,257.77 278.00,256.47 C278.00,253.13 280.25,255.72 280.58,259.43 C280.96,263.64 278.06,269.00 275.40,269.00 C274.59,269.00 272.71,267.73 271.22,266.17 ZM 375.50 257.53 C370.00,256.84 358.75,255.54 350.50,254.63 C342.25,253.72 332.22,252.53 328.21,251.99 C324.20,251.44 319.36,251.00 317.46,251.00 C314.92,251.00 314.00,250.56 314.00,249.36 C314.00,247.33 315.95,245.76 323.04,242.07 C338.05,234.26 355.77,232.25 367.87,237.00 C376.22,240.28 386.65,249.52 387.37,254.29 C387.47,254.95 387.88,256.02 388.27,256.65 C388.82,257.52 386.55,259.48 385.67,258.89 C385.58,258.83 381.00,258.21 375.50,257.53 ZM 318.99 202.99 C317.88,201.88 315.62,198.19 313.98,194.79 C312.33,191.39 310.04,187.61 308.89,186.38 C305.20,182.45 302.06,174.13 298.45,158.63 C290.11,122.95 290.42,124.53 291.93,125.46 C292.45,125.78 293.61,128.62 294.51,131.77 C295.42,134.92 296.72,138.40 297.42,139.50 C298.65,141.44 299.79,146.34 300.47,152.50 C300.83,155.81 303.85,165.24 309.41,180.44 C313.06,190.41 317.02,197.00 319.35,197.00 C320.41,197.00 323.00,202.20 323.00,204.32 C323.00,205.65 320.97,204.97 318.99,202.99 ZM 278.29 121.08 C270.28,120.51 269.97,120.40 265.75,116.25 C261.58,112.15 259.00,110.91 259.00,113.00 C259.00,114.88 256.37,114.00 253.81,111.25 C251.58,108.86 251.22,107.52 251.07,101.13 C250.92,95.01 251.32,92.88 253.43,88.63 C255.89,83.65 260.55,78.12 266.57,73.01 L 269.50 70.52 L 266.41 74.01 C262.52,78.40 260.62,86.27 261.16,95.79 C261.49,101.65 262.00,103.37 264.03,105.53 C265.94,107.57 267.17,108.04 269.50,107.66 C271.15,107.40 274.19,107.66 276.25,108.24 C279.43,109.15 280.30,109.04 282.00,107.50 C283.11,106.50 284.14,105.86 284.30,106.09 C284.47,106.32 285.81,109.38 287.29,112.91 C289.33,117.75 289.71,119.64 288.87,120.66 C288.26,121.40 287.47,121.92 287.13,121.83 C286.78,121.74 282.80,121.40 278.29,121.08 ZM 241.68 109.25 C241.02,108.13 242.56,104.61 244.37,103.11 C245.75,101.96 246.11,102.15 246.98,104.46 C248.66,108.87 248.27,110.00 245.06,110.00 C243.44,110.00 241.92,109.66 241.68,109.25 ZM 266.61 78.58 C266.91,77.79 267.81,76.90 268.60,76.60 C269.76,76.15 269.84,76.44 268.99,78.02 C267.78,80.27 265.78,80.74 266.61,78.58 ZM 238.85 58.25 C234.53,51.62 234.37,51.50 230.20,51.59 C227.25,51.65 225.53,52.26 224.55,53.59 C223.17,55.46 223.13,55.46 222.32,53.50 C221.87,52.40 221.52,48.35 221.55,44.50 C221.59,38.48 222.08,36.59 225.04,31.06 C229.23,23.22 237.91,13.43 237.95,16.50 C237.96,17.60 237.32,20.30 236.53,22.50 C234.41,28.39 234.63,39.61 237.04,47.38 C239.37,54.95 241.14,56.41 246.12,54.93 C247.98,54.37 251.74,53.74 254.48,53.51 C257.67,53.25 259.90,52.49 260.71,51.38 C262.15,49.41 262.88,49.76 263.14,52.56 C263.66,58.23 263.18,58.89 257.25,60.61 C254.09,61.52 250.61,62.88 249.53,63.63 C245.54,66.39 243.49,65.36 238.85,58.25 ZM 243.60 21.39 C243.28,20.56 242.50,20.19 241.87,20.58 C240.45,21.46 241.63,14.17 243.21,12.25 C244.86,10.25 246.97,10.80 248.00,13.49 C249.08,16.35 248.44,18.76 245.93,21.21 C244.40,22.69 244.11,22.72 243.60,21.39 Z" fill="rgba(241,126,42,1)"/>
<path d="M 146.00 430.02 C146.00,429.38 148.55,426.01 151.67,422.53 C157.77,415.71 158.57,415.51 163.18,419.77 L 165.87 422.25 L 170.26 419.79 L 174.66 417.33 L 174.20 419.73 C173.85,421.55 174.26,422.26 175.91,422.69 C177.11,423.00 177.92,423.73 177.73,424.31 C177.28,425.67 171.30,427.83 167.68,427.92 C166.14,427.97 164.11,428.39 163.18,428.88 C160.28,430.39 146.00,431.34 146.00,430.02 ZM 379.00 251.03 C376.13,250.10 354.48,247.44 338.86,246.10 C321.28,244.60 319.97,242.04 334.37,237.38 C345.94,233.64 358.92,233.49 367.89,237.00 C374.09,239.42 382.97,246.21 385.06,250.12 C385.92,251.71 385.72,251.99 383.79,251.92 C382.53,251.88 380.38,251.48 379.00,251.03 ZM 65.83 238.24 C60.90,232.88 57.99,228.26 55.02,221.04 C51.30,212.03 51.20,210.58 54.35,211.37 C58.43,212.40 58.24,210.71 53.80,206.38 C44.55,197.36 40.18,189.31 37.50,176.35 C35.87,168.44 36.17,166.45 38.85,167.52 C39.76,167.88 46.24,169.71 53.25,171.59 C60.26,173.47 71.96,176.61 79.25,178.58 C86.54,180.54 98.57,183.74 106.00,185.68 C113.43,187.61 124.45,190.54 130.50,192.19 C136.55,193.83 145.10,196.08 149.50,197.17 C153.90,198.27 162.20,200.55 167.95,202.24 C173.70,203.93 179.78,205.35 181.45,205.40 C183.13,205.46 184.73,205.76 185.00,206.09 C185.27,206.41 187.30,207.17 189.50,207.78 C191.70,208.39 199.35,210.54 206.50,212.56 C213.65,214.57 223.47,217.25 228.31,218.51 C233.16,219.77 237.88,221.43 238.81,222.19 C239.74,222.96 241.77,224.22 243.33,225.00 C244.88,225.78 246.57,227.19 247.07,228.14 C247.88,229.65 247.65,229.76 245.19,229.05 C243.65,228.61 240.91,227.49 239.10,226.55 C237.29,225.62 235.63,225.04 235.40,225.27 C235.17,225.50 236.76,226.49 238.93,227.47 C241.11,228.45 243.93,230.42 245.20,231.85 C246.46,233.27 246.79,233.90 245.91,233.23 C243.06,231.07 236.11,229.02 235.41,230.14 C234.26,232.01 226.56,230.24 217.66,226.08 C212.88,223.83 208.77,222.00 208.53,222.00 C208.08,222.00 188.86,213.95 183.50,211.52 C181.85,210.77 176.98,208.56 172.69,206.61 C168.39,204.65 163.66,202.93 162.19,202.78 C159.92,202.54 159.50,202.89 159.49,205.00 C159.45,211.42 149.35,219.89 138.47,222.62 C134.95,223.50 131.28,224.80 130.31,225.51 C128.14,227.10 127.93,233.64 129.94,237.39 C131.81,240.88 130.88,241.50 126.84,239.46 C121.79,236.90 119.08,234.02 116.41,228.40 C113.13,221.48 113.25,220.00 117.09,220.00 L 120.18 220.00 L 115.34 216.17 C109.52,211.57 106.21,206.90 101.94,197.25 C100.18,193.26 98.17,190.00 97.48,190.00 C94.93,190.00 91.58,199.12 91.52,206.22 C91.48,209.96 90.94,213.46 90.28,214.12 C89.63,214.77 84.93,215.64 79.82,216.07 C71.27,216.77 70.37,217.06 68.28,219.67 C65.51,223.12 65.46,224.37 67.90,228.38 C69.66,231.28 70.31,239.03 68.90,240.43 C68.60,240.73 67.22,239.75 65.83,238.24 ZM 300.56 158.24 C297.83,152.57 295.03,143.64 292.58,132.75 C291.65,128.62 293.67,129.44 295.03,133.75 C295.69,135.81 296.78,138.40 297.45,139.50 C298.70,141.53 299.80,146.44 300.54,153.27 C300.76,155.34 301.44,157.96 302.05,159.10 C302.66,160.24 302.98,161.35 302.76,161.57 C302.54,161.79 301.55,160.29 300.56,158.24 ZM 260.14 88.44 C260.04,84.26 260.49,81.78 261.57,80.44 C263.06,78.60 263.10,78.65 262.40,81.50 C262.00,83.15 261.36,86.75 260.97,89.50 L 260.28 94.50 L 260.14 88.44 ZM 266.61 78.58 C266.91,77.79 267.81,76.90 268.60,76.60 C269.76,76.15 269.84,76.44 268.99,78.02 C267.78,80.27 265.78,80.74 266.61,78.58 ZM 243.60 21.39 C243.28,20.56 242.50,20.19 241.87,20.58 C240.45,21.46 241.63,14.17 243.21,12.25 C244.86,10.25 246.97,10.80 248.00,13.49 C249.08,16.35 248.44,18.76 245.93,21.21 C244.40,22.69 244.11,22.72 243.60,21.39 Z" fill="rgba(245,162,41,1)"/>
<path d="M 146.00 430.07 C146.00,429.40 148.54,426.03 151.64,422.56 C157.70,415.78 159.14,415.39 162.98,419.48 L 165.14 421.77 L 162.58 424.33 C161.05,425.86 160.26,427.51 160.62,428.44 C161.05,429.58 160.58,430.00 158.86,430.01 C157.56,430.01 154.14,430.30 151.25,430.65 C147.46,431.10 146.00,430.94 146.00,430.07 ZM 375.00 245.60 C371.45,244.33 363.50,242.90 350.12,241.13 C342.36,240.10 340.37,239.09 341.30,236.65 C342.09,234.61 353.09,233.54 360.02,234.84 C369.40,236.59 382.02,243.55 380.44,246.09 C379.75,247.21 379.38,247.17 375.00,245.60 ZM 244.94 229.05 C243.53,228.62 241.33,227.71 240.05,227.03 C236.98,225.38 207.47,216.74 200.50,215.45 C194.52,214.34 190.09,213.13 186.63,211.65 C184.50,210.74 182.15,210.00 181.42,210.00 C179.44,210.00 161.56,201.65 162.72,201.26 C163.27,201.08 167.68,202.08 172.52,203.48 C177.37,204.88 182.15,205.77 183.16,205.45 C184.17,205.13 185.00,205.27 185.00,205.76 C185.00,206.26 186.91,207.16 189.25,207.76 C191.59,208.37 199.35,210.52 206.50,212.54 C213.65,214.57 223.47,217.25 228.31,218.51 C233.16,219.77 237.88,221.43 238.81,222.19 C239.74,222.96 241.77,224.22 243.33,225.00 C244.88,225.78 246.59,227.23 247.11,228.21 C247.64,229.19 247.94,229.96 247.79,229.91 C247.63,229.87 246.35,229.48 244.94,229.05 ZM 118.78 207.08 C108.93,202.88 104.67,199.13 102.67,192.93 C99.69,183.71 99.62,183.76 110.25,186.71 C115.34,188.12 122.61,190.09 126.42,191.08 C131.46,192.40 133.96,193.65 135.63,195.69 C138.42,199.10 138.50,200.08 136.25,202.83 C135.29,204.00 133.69,206.10 132.70,207.48 C130.35,210.78 127.24,210.69 118.78,207.08 ZM 64.95 197.07 C58.04,194.89 46.09,189.08 43.76,186.75 C42.79,185.79 41.39,185.00 40.64,185.00 C39.78,185.00 38.83,182.86 38.08,179.25 C36.26,170.48 36.24,167.47 38.00,167.65 C39.71,167.82 56.27,172.17 66.00,175.01 C69.57,176.05 74.47,177.41 76.89,178.03 L 81.28 179.15 L 80.72 186.33 C80.01,195.46 79.51,196.63 75.77,197.93 C72.00,199.24 71.81,199.23 64.95,197.07 ZM 43.18 192.33 C43.66,189.82 46.00,189.48 46.00,191.92 C46.00,193.15 45.35,194.00 44.43,194.00 C43.50,194.00 42.99,193.32 43.18,192.33 ZM 266.61 78.58 C266.91,77.79 267.81,76.90 268.60,76.60 C269.76,76.15 269.84,76.44 268.99,78.02 C267.78,80.27 265.78,80.74 266.61,78.58 ZM 243.60 21.39 C243.28,20.56 242.50,20.19 241.87,20.58 C240.45,21.46 241.63,14.17 243.21,12.25 C244.86,10.25 246.97,10.80 248.00,13.49 C249.08,16.35 248.44,18.76 245.93,21.21 C244.40,22.69 244.11,22.72 243.60,21.39 Z" fill="rgba(247,196,67,1)"/>
</g>
</svg>