<?xml version="1.0" encoding="UTF-8"?>
<!-- Generated by Pixelmator Pro 3.6.18 -->
<svg width="1700" height="600" viewBox="0 0 1700 600" xmlns="http://www.w3.org/2000/svg">
    <text id="PrivateLinkShare" xml:space="preserve" x="467" y="397" font-family="Verdana" font-size="114" font-weight="700" fill="#000000">PrivateLinkShare</text>
    <g id="bird-bg">
        <path id="Path" fill="#3c2127" stroke="none" d="M 177 396.140015 C 178.429993 396.440002 180.039993 396.630005 182.050003 396.769989 C 188.940002 397.26001 189.029999 397.309998 187.289993 399.23999 C 185.570007 401.130005 185.610001 401.279999 188.509995 403.609985 C 189.630005 404.51001 191.050003 405.380005 192.630005 406.179993 C 187.899994 404.079987 184.070007 401.529999 183.809998 399.769989 C 183.570007 398.100006 182.380005 397.390015 178.339996 396.48999 C 177.910004 396.390015 177.460007 396.269989 177 396.140015 Z M 369.399994 317.720001 C 367.809998 318.269989 366.089996 318.919983 364.179993 319.679993 C 360.700012 321.059998 357.660004 321.98999 357.420013 321.75 C 357.170013 321.509979 357.75 319.549988 358.700012 317.399994 C 358.799988 317.179993 358.890015 316.949982 358.980011 316.709991 C 358.820007 317.269989 358.649994 317.779999 358.470001 318.25 C 357.529999 320.669983 360.570007 320.539978 369.399994 317.720001 Z M 235.600006 153.869995 C 235.580002 154.730011 235.580002 155.690002 235.580002 156.779999 L 235.619995 165.049988 L 233.330002 162.279999 L 232.119995 160.809998 C 232.669998 160.890015 233.279999 161.100006 234 161.399994 C 235.240005 161.910004 235.509995 160.850006 235.570007 155.23999 C 235.580002 154.76001 235.580002 154.299988 235.600006 153.869995 Z M 360.079987 311.519989 C 360.339996 308.869995 360.450012 305.279999 360.459991 300 C 360.470001 295.769989 360.470001 292.829987 360.350006 290.539978 C 360.529999 292.130005 360.660004 293.899994 360.76001 296 C 361.019989 301.410004 360.75 306.98999 360.079987 311.519989 Z M 207.889999 410.01001 C 211.110001 410.049988 211.789993 410.390015 211.360001 411.51001 C 210.960007 412.540009 212.020004 413.640015 213.970001 414.609985 C 212.009995 413.670013 210.940002 412.600006 211.320007 411.619995 C 211.660004 410.730011 210.850006 410.299988 207.889999 410.01001 Z M 160.570007 386.079987 C 158.350006 383.76001 157.960007 382.950012 158.740005 381.829987 C 157.949997 382.959991 158.389999 383.809998 160.820007 386.320007 C 162.220001 387.76001 165.039993 389.970001 167.679993 391.73999 C 165 390.049988 162.490005 388.079987 160.570007 386.079987 Z M 404 316.940002 C 411.059998 319.690002 417.100006 325.209991 425.269989 335.25 C 417.140015 325.259979 411.040009 319.709991 404 316.940002 Z M 222.289993 192.940002 C 222.970001 194.929993 222.970001 196.369995 222.470001 196.809998 C 222.899994 196.350006 222.869995 194.970001 222.289993 192.940002 Z M 346.720001 252.330017 C 343.070007 242.850006 340 234.640015 340 234.140015 C 340 234.589996 343.040009 242.73999 346.720001 252.330017 Z"/>
        <path id="path1" fill="#710d5f" stroke="none" d="M 294.850006 465.869995 C 294.839996 465.649994 294.829987 465.440002 294.809998 465.220001 C 294.380005 460.029999 291.539978 459.799988 286.779999 464.559998 C 284.769989 466.559998 282.709991 467.940002 282.199982 467.619995 C 281.679993 467.299988 280.949982 463.829987 280.559998 459.899994 C 279.639984 450.579987 278.789978 448.570007 275.149994 447.059998 C 273.350006 446.309998 271.72998 444.670013 271.139984 442.970001 C 270.320007 440.609985 269.5 440.079987 266.329987 439.809998 C 263.209991 439.559998 262.259979 438.950012 261.119995 436.5 C 259.220001 432.390015 257.269989 430.299988 254.690002 429.630005 C 252.990005 429.190002 250.100006 431.380005 243.520004 438.640015 C 245.360001 436.529999 247.160004 434.470001 248.75 432.660004 C 253.839996 426.890015 258 421.899994 258 421.570007 C 258 421.25 254.960007 421.269989 251.25 421.609985 C 248.429993 421.869995 245.5 421.799988 242.979996 421.48999 C 248.520004 421.859985 257.019989 421.230011 258.429993 420.059998 C 259.380005 419.269989 260.039978 419.350006 260.880005 420.359985 C 263.48999 423.48999 280 417.26001 280 413.140015 C 280 412.51001 280.410004 412 280.919983 412 C 281.98999 412 286 405.790009 286 404.130005 C 286 402.049988 283.359985 402.970001 280.679993 405.970001 C 278.529999 408.390015 277.609985 408.790009 275.769989 408.089996 C 273.869995 407.380005 273.519989 406.529999 273.600006 402.970001 C 273.720001 397.76001 275.720001 396 281.549988 396 C 287.179993 396 295.429993 394.390015 301.5 392.109985 C 304.25 391.079987 308.380005 389.670013 310.679993 388.980011 L 314.869995 387.720001 L 321.179993 392.730011 C 332.640015 401.809998 343.859985 405.959991 357.100006 405.98999 C 361.890015 406 363.839996 405.630005 365.01001 404.450012 C 364.779999 404.769989 364.549988 405.059998 364.329987 405.329987 C 363.049988 406.880005 362 408.5 362 408.920013 C 362 409.339996 359.390015 412.359985 356.200012 415.640015 C 349.149994 422.859985 336.179993 432.149994 328.299988 435.619995 C 325.109985 437.019989 321.059998 438.850006 319.309998 439.670013 C 317.559998 440.5 311.26001 442.609985 305.309998 444.359985 L 294.5 447.549988 L 294.859985 458.140015 C 294.970001 461.230011 294.98999 463.730011 294.850006 465.869995 Z M 293.799988 471.420013 C 292.549988 474.940002 290.100006 477.839996 285.570007 482.399994 C 289.829987 478.109985 292.470001 474.640015 293.799988 471.420013 Z M 405.48999 317.570007 C 411.929993 320.5 417.679993 325.919983 425.269989 335.25 C 417.720001 325.970001 411.920013 320.519989 405.48999 317.570007 Z M 115.25 258.580017 C 122.540001 260.539978 134.569992 263.73999 142 265.679993 C 134.569992 263.73999 122.43 260.51001 115 258.51001 C 107.57 256.51001 95.879997 253.359985 89 251.52002 C 82.129997 249.679993 75.759995 247.880005 74.849998 247.52002 C 75.759995 247.880005 82.239998 249.710022 89.25 251.589996 C 96.259995 253.470001 107.959999 256.609985 115.25 258.580017 Z M 237.199997 420.040009 C 236.460007 419.649994 236.029999 419.209991 236 418.73999 C 236.029999 419.119995 236.490005 419.600006 237.199997 420.040009 Z"/>
        <path id="path2" fill="#a3084d" stroke="none" d="M 182 510.070007 C 182 509.459991 191.809998 497.839996 203.789993 484.230011 C 215.779999 470.630005 229.020004 455.450012 233.210007 450.5 C 247.479996 433.670013 252.279999 429 254.690002 429.630005 C 257.27002 430.299988 259.220001 432.390015 261.119995 436.5 C 262.26001 438.950012 263.210022 439.559998 266.330017 439.809998 C 269.5 440.079987 270.320007 440.609985 271.140015 442.970001 C 271.730011 444.670013 273.350006 446.309998 275.149994 447.059998 C 278.790009 448.570007 279.640015 450.579987 280.559998 459.899994 C 280.950012 463.829987 281.679993 467.299988 282.200012 467.619995 C 282.710022 467.940002 284.77002 466.559998 286.779999 464.559998 C 291.540009 459.799988 294.380005 460.029999 294.809998 465.220001 C 295.23999 470.440002 292.630005 475.290009 285.570007 482.399994 C 277.970001 490.040009 275.429993 491.589996 274.190002 489.369995 C 273.429993 488.01001 272.429993 488.429993 267.399994 492.23999 C 264.149994 494.700012 258.850006 498.160004 255.619995 499.940002 L 249.729996 503.170013 L 250.229996 500.559998 C 250.949997 496.820007 249.880005 496.690002 244.800003 499.910004 C 242.330002 501.480011 238.559998 503.320007 236.410004 504.019989 C 234.259995 504.709991 231.600006 505.660004 230.5 506.130005 C 225.270004 508.369995 219.690002 509.929993 218.839996 509.399994 C 218.289993 509.059998 218.539993 507.820007 219.449997 506.440002 C 221.460007 503.369995 221.410004 502.619995 219.25 503.480011 C 218.289993 503.859985 216.820007 504.320007 216 504.51001 C 215.179993 504.700012 212.529999 505.559998 210.119995 506.420013 C 207.720001 507.290009 204.649994 508 203.309998 508 C 201.970001 508 200.110001 508.390015 199.179993 508.880005 C 196.369995 510.339996 182 511.339996 182 510.070007 Z M 239.25 420.950012 C 237.460007 420.390015 236 419.390015 236 418.709991 C 236 417.839996 233.710007 417.459991 228.25 417.440002 C 219.309998 417.399994 210.309998 414.23999 211.360001 411.51001 C 211.830002 410.290009 210.990005 410 207.009995 410 C 201.289993 410 192.809998 407.070007 188.509995 403.609985 C 185.610001 401.279999 185.570007 401.130005 187.289993 399.23999 C 189.029999 397.309998 188.940002 397.26001 182.050003 396.769989 C 176.399994 396.369995 173.970001 395.619995 169.5 392.910004 C 166.449997 391.059998 162.550003 388.100006 160.820007 386.320007 C 158.190002 383.600006 157.889999 382.839996 158.970001 381.540009 C 160.029999 380.26001 159.970001 380 158.589996 380 C 156.460007 380 147.460007 375.5 143.210007 372.299988 C 141.400009 370.950012 138.100006 367.529999 135.87001 364.720001 C 132.020004 359.839996 131.930008 359.570007 133.919998 358.839996 C 137.089996 357.660004 136.430008 356.459991 131.75 354.920013 C 126.239998 353.109985 115.260002 342.399994 111.160004 334.850006 L 108.089996 329.190002 L 110.550003 328.579987 C 111.900002 328.23999 112.980003 327.630005 112.949997 327.22998 C 112.919998 326.829987 110.779999 325.119995 108.199997 323.419983 C 101.589996 319.100006 94.660004 310.079987 91.060005 301.130005 C 87.310005 291.820007 87.220001 290.589996 90.349998 291.369995 C 94.43 292.399994 94.240005 290.709991 89.800003 286.380005 C 80.550003 277.359985 76.18 269.309998 73.5 256.350006 C 71.870003 248.440002 72.169998 246.450012 74.849998 247.52002 C 75.760002 247.880005 82.120003 249.679993 89 251.52002 C 95.880005 253.359985 107.57 256.51001 115 258.51001 C 122.43 260.51001 134.570007 263.73999 142 265.679993 C 149.430008 267.609985 160.449997 270.539978 166.5 272.190002 C 172.550003 273.830017 181.100006 276.079987 185.5 277.169983 C 189.899994 278.269989 198 280.459991 203.5 282.049988 C 216.800003 285.889984 218.270004 286.169983 219.809998 285.169983 C 220.820007 284.5 220.389999 283.160004 217.889999 279.139984 C 213.479996 272.039978 211.229996 258 214.5 258 C 216.520004 258 216.389999 256.690002 213.869995 251.73999 C 211.539993 247.179993 210.339996 237.320007 211.419998 231.589996 C 212.020004 228.369995 212.360001 228.049988 214.550003 228.600006 C 217.389999 229.309998 217.470001 228.890015 215.529999 223.5 C 213.360001 217.470001 213.580002 205.140015 215.960007 199.580017 C 218.020004 194.790009 218.820007 194.220001 220.779999 196.179993 C 222.710007 198.109985 223.470001 196.200012 222.190002 192.649994 C 220.089996 186.850006 220.729996 179.5 224.020004 171.679993 C 225.679993 167.730011 227.940002 163.380005 229.039993 162 L 231.029999 159.5 L 233.330002 162.279999 L 235.619995 165.049988 L 235.580002 156.779999 C 235.550003 149.25 235.880005 147.820007 239.199997 141 C 243.100006 132.98999 249.270004 125 251.539993 125 C 252.309998 125 253.410004 125.899994 254 127 C 255.800003 130.359985 256.690002 129.269989 257.350006 122.899994 C 258.25 114.290009 262.850006 106.070007 271.690002 97.25 C 275.690002 93.26001 279.790009 90 280.800018 90 C 282.240021 90 283.730011 92.75 287.470001 102.25 C 307.790009 153.929993 319.609985 183.75 322.640015 191 C 324.589996 195.679993 327.679993 203.830017 329.5 209.119995 C 331.329987 214.410004 333.290009 219.589996 333.859985 220.619995 C 334.429993 221.649994 335.149994 224.130005 335.459991 226.109985 C 335.779999 228.100006 336.929993 230.529999 338.019989 231.52002 C 339.109985 232.5 340 233.679993 340 234.140015 C 340 235.169983 352.970001 268.76001 357.320007 279 C 360.380005 286.209991 360.5 287.019989 360.459991 300 C 360.429993 310.549988 360.049988 314.350006 358.700012 317.399994 C 357.75 319.549988 357.170013 321.509979 357.420013 321.75 C 357.660004 321.98999 360.700012 321.059998 364.179993 319.679993 C 374.369995 315.639984 378.959991 314.679993 388.5 314.589996 C 404.070007 314.440002 411.940002 318.859985 425.279999 335.259979 C 432.380005 343.98999 433.299988 352.75 427.75 358.73999 L 425.670013 360.980011 L 424.559998 358.73999 C 422.970001 355.549988 418.609985 353.779999 411.019989 353.230011 C 397.339996 352.25 387.029999 360.48999 378.019989 379.589996 C 371.01001 394.440002 366.98999 402.160004 365.200012 404.25 C 364.040009 405.589996 362.149994 406 357.100006 405.98999 C 343.859985 405.959991 332.640015 401.809998 321.179993 392.730011 L 314.869995 387.720001 L 310.679993 388.980011 C 308.380005 389.670013 304.25 391.079987 301.5 392.109985 C 295.429993 394.390015 287.179993 396 281.550018 396 C 275.720001 396 273.720001 397.76001 273.600006 402.970001 C 273.52002 406.529999 273.869995 407.380005 275.77002 408.089996 C 277.610016 408.790009 278.529999 408.390015 280.679993 405.970001 C 283.360016 402.970001 286 402.049988 286 404.130005 C 286 405.790009 281.990021 412 280.920013 412 C 280.410004 412 280 412.51001 280 413.140015 C 280 417.26001 263.490021 423.48999 260.880005 420.359985 C 260.040009 419.350006 259.380005 419.269989 258.429993 420.059998 C 256.630005 421.549988 243.229996 422.170013 239.25 420.950012 Z"/>
        <path id="path3" fill="#c40443" stroke="none" d="M 182 510.079987 C 182 509.059998 217.25 468.390015 235.160004 448.75 C 242.589996 440.600006 243.360001 440.029999 246.320007 440.529999 C 248.070007 440.820007 250.619995 441.890015 252 442.899994 C 254.229996 444.540009 254.460007 445.329987 254.160004 450.26001 C 253.770004 456.700012 254.639999 457.619995 259.51001 455.859985 C 263.820007 454.299988 264.950012 455.220001 265.710022 460.899994 C 266.350006 465.609985 266.429993 465.709991 271.080017 466.480011 C 275.330017 467.190002 277.630005 469.829987 278.5 475 C 279.26001 479.48999 280.550018 479.929993 284.27002 477 C 287.070007 474.799988 289 474.420013 289 476.059998 C 289 477.070007 280.140015 487.130005 277 489.690002 C 275.800018 490.660004 275.27002 490.600006 274.339996 489.390015 C 273.339996 488.070007 272.380005 488.470001 267.339996 492.290009 C 264.130005 494.720001 258.850006 498.160004 255.619995 499.940002 L 249.729996 503.170013 L 250.229996 500.559998 C 250.949997 496.820007 249.880005 496.690002 244.800003 499.910004 C 242.330002 501.480011 238.559998 503.320007 236.410004 504.019989 C 234.259995 504.709991 231.600006 505.660004 230.5 506.130005 C 225.270004 508.369995 219.690002 509.929993 218.839996 509.399994 C 218.289993 509.059998 218.539993 507.820007 219.449997 506.440002 C 221.460007 503.369995 221.410004 502.619995 219.25 503.480011 C 218.289993 503.859985 216.820007 504.320007 216 504.51001 C 215.179993 504.700012 212.529999 505.559998 210.119995 506.420013 C 207.720001 507.290009 204.649994 508 203.309998 508 C 201.970001 508 200.110001 508.390015 199.179993 508.880005 C 196.389999 510.329987 182 511.339996 182 510.079987 Z M 214.860001 414.829987 C 212.009995 413.549988 210.960007 412.549988 211.360001 411.5 C 211.830002 410.290009 210.979996 410 207.009995 410 C 201.289993 410 192.809998 407.070007 188.509995 403.609985 C 185.610001 401.279999 185.570007 401.130005 187.289993 399.23999 C 189.029999 397.309998 188.940002 397.26001 182.050003 396.769989 C 176.399994 396.369995 173.970001 395.619995 169.5 392.910004 C 166.449997 391.059998 162.550003 388.100006 160.820007 386.320007 C 158.190002 383.600006 157.889999 382.839996 158.970001 381.540009 C 160.029999 380.26001 159.970001 380 158.589996 380 C 156.460007 380 147.460007 375.5 143.210007 372.299988 C 141.400009 370.950012 138.100006 367.529999 135.87001 364.720001 C 132.020004 359.839996 131.930008 359.570007 133.919998 358.839996 C 137.089996 357.660004 136.430008 356.459991 131.75 354.920013 C 126.239998 353.109985 115.260002 342.399994 111.160004 334.850006 L 108.089996 329.190002 L 110.550003 328.579987 C 111.900002 328.23999 112.980003 327.630005 112.949997 327.22998 C 112.919998 326.829987 110.779999 325.119995 108.199997 323.419983 C 101.589996 319.100006 94.660004 310.079987 91.060005 301.130005 C 87.310005 291.820007 87.220001 290.589996 90.349998 291.369995 C 94.43 292.399994 94.240005 290.709991 89.800003 286.380005 C 80.550003 277.359985 76.18 269.309998 73.5 256.350006 C 71.870003 248.440002 72.169998 246.450012 74.849998 247.52002 C 75.760002 247.880005 82.240005 249.710022 89.25 251.589996 C 96.260002 253.470001 107.959999 256.609985 115.25 258.580017 C 122.540001 260.539978 134.570007 263.73999 142 265.679993 C 149.430008 267.609985 160.449997 270.539978 166.5 272.190002 C 172.550003 273.830017 181.100006 276.079987 185.5 277.169983 C 189.899994 278.269989 198.199997 280.549988 203.949997 282.23999 C 209.699997 283.929993 215.779999 285.350006 217.449997 285.399994 C 219.130005 285.459991 220.729996 285.759979 221 286.089996 C 221.270004 286.410004 223.300003 287.169983 225.5 287.779999 C 240.429993 291.929993 255.770004 296.23999 257.25 296.690002 C 259.630005 297.429993 259.470001 295.48999 256.77002 291.119995 C 255.050003 288.339996 254.509995 285.880005 254.419998 280.410004 C 254.360001 276.509979 253.919998 272.679993 253.429993 271.910004 C 252.940002 271.130005 252.309998 266.690002 252.020004 262.029999 L 251.5 253.559998 L 246.619995 252.190002 C 242.050003 250.899994 241.619995 250.940002 239.690002 252.859985 C 237.300003 255.25 237.979996 257.539978 242.910004 263.820007 C 246.259995 268.089996 247.720001 272 245.960007 272 C 245.320007 272 242.25 271.359985 239.139999 270.570007 C 236.039993 269.779999 231.020004 268.98999 228 268.820007 C 222.910004 268.52002 222.479996 268.669983 222.169998 270.809998 C 221.990005 272.080017 222.550003 274.190002 223.410004 275.509979 C 224.270004 276.820007 224.729996 278.549988 224.419998 279.350006 C 223.940002 280.589996 223.479996 280.609985 221.270004 279.459991 C 217.899994 277.720001 214.070007 269.899994 213.320007 263.25 C 212.809998 258.809998 212.970001 258 214.360001 258 C 216.529999 258 216.429993 256.76001 213.869995 251.73999 C 211.539993 247.179993 210.339996 237.320007 211.419998 231.589996 C 212.020004 228.369995 212.360001 228.049988 214.550003 228.600006 C 217.389999 229.309998 217.470001 228.890015 215.529999 223.5 C 213.360001 217.470001 213.580002 205.140015 215.960007 199.580017 C 218.020004 194.790009 218.820007 194.220001 220.779999 196.179993 C 222.710007 198.109985 223.470001 196.200012 222.190002 192.649994 C 220.089996 186.850006 220.729996 179.5 224.020004 171.679993 C 225.679993 167.730011 227.940002 163.380005 229.039993 162 L 231.029999 159.5 L 233.330002 162.279999 L 235.619995 165.049988 L 235.580002 156.779999 C 235.550003 149.25 235.880005 147.820007 239.199997 141 C 243.100006 132.98999 249.270004 125 251.539993 125 C 252.309998 125 253.410004 125.899994 254 127 C 255.800003 130.359985 256.690002 129.269989 257.350006 122.899994 C 258.25 114.290009 262.850006 106.070007 271.690002 97.25 C 275.690002 93.26001 279.790009 90 280.800018 90 C 282.240021 90 283.730011 92.75 287.470001 102.25 C 307.790009 153.929993 319.609985 183.75 322.640015 191 C 324.589996 195.679993 327.679993 203.830017 329.5 209.119995 C 331.329987 214.410004 333.290009 219.589996 333.859985 220.619995 C 334.429993 221.649994 335.149994 224.130005 335.459991 226.109985 C 335.779999 228.100006 336.929993 230.529999 338.019989 231.52002 C 339.109985 232.5 340 233.679993 340 234.140015 C 340 235.169983 352.970001 268.76001 357.320007 279 C 360.380005 286.209991 360.5 287.019989 360.459991 300 C 360.429993 310.549988 360.049988 314.350006 358.700012 317.399994 C 357.75 319.549988 357.170013 321.509979 357.420013 321.75 C 357.660004 321.98999 360.700012 321.059998 364.179993 319.679993 C 374.369995 315.639984 378.959991 314.679993 388.5 314.589996 C 404.070007 314.440002 411.940002 318.859985 425.279999 335.259979 C 432.380005 343.98999 433.299988 352.75 427.75 358.73999 L 425.670013 360.980011 L 424.559998 358.73999 C 422.970001 355.549988 418.609985 353.779999 411.019989 353.230011 C 397.339996 352.25 387.029999 360.48999 378.019989 379.589996 C 371.01001 394.440002 366.98999 402.160004 365.200012 404.25 C 361.850006 408.140015 343.320007 405.720001 331.76001 399.880005 C 322.290009 395.100006 308.829987 380.109985 302.119995 366.859985 C 301.380005 365.410004 299.73999 363.75 298.470001 363.170013 C 295.829987 361.959991 295.76001 362.029999 291.570007 369.350006 C 288.679993 374.410004 288.649994 375.480011 291.140015 383.769989 C 292.369995 387.859985 292.309998 388.140015 289.740021 390.709991 C 287.330017 393.130005 286.279999 393.410004 279.279999 393.549988 C 275 393.630005 269.860016 394.040009 267.850006 394.440002 C 265.350006 394.950012 263.140015 394.709991 260.850006 393.679993 C 259.01001 392.850006 254.550003 391.970001 250.949997 391.720001 C 247.350006 391.470001 242.940002 390.51001 241.149994 389.579987 C 237.880005 387.890015 233.429993 388.269989 234.600006 390.149994 C 234.940002 390.709991 233.580002 393.540009 231.580002 396.450012 C 229.580002 399.350006 227.740005 403.320007 227.490005 405.26001 C 227.059998 408.609985 227.210007 408.820007 230.490005 409.429993 C 232.960007 409.899994 234.710007 409.579987 236.619995 408.329987 C 239.229996 406.619995 239.270004 406.619995 238.240005 408.540009 C 235.789993 413.079987 232.440002 415.019989 225.630005 415.839996 C 220.100006 416.51001 218.229996 416.329987 214.860001 414.829987 Z M 227.309998 389.929993 C 229.470001 389.329987 230.960007 388.359985 230.740005 387.690002 C 230.229996 386.119995 224.089996 383.109985 221.289993 383.049988 C 219.210007 383 217.270004 385.25 217.449997 387.5 C 217.740005 391.049988 220.669998 391.779999 227.309998 389.929993 Z M 325.470001 323.359985 C 329.140015 317.549988 331.929993 312.25 331.670013 311.570007 C 330.869995 309.48999 317.920013 305.639984 307.5 304.389984 C 303.540009 303.910004 303.519989 303.929993 305.640015 305.699982 C 306.820007 306.690002 309.179993 308.269989 310.890015 309.199982 C 312.600006 310.139984 314 311.440002 314 312.079987 C 314 313.23999 312.929993 313.179993 301.869995 311.389984 C 299.589996 311.029999 297.970001 311.23999 297.51001 311.97998 C 296.570007 313.5 300.630005 317.809998 303.369995 318.199982 C 304.730011 318.389984 305.540009 319.259979 305.609985 320.609985 C 305.670013 321.769989 308.100006 325.699982 311.019989 329.339996 C 314.950012 334.23999 316.660004 335.699982 317.570007 334.940002 C 318.25 334.380005 321.809998 329.169983 325.470001 323.359985 Z"/>
        <path id="path4" fill="#df0b3b" stroke="none" d="M 182 510.079987 C 182 509.059998 221.800003 463.179993 231.720001 452.75 C 235.119995 449.190002 236.820007 448.109985 238.539993 448.420013 C 241.75 449 244.119995 450.410004 246.889999 453.369995 C 248.919998 455.540009 249.160004 456.480011 248.509995 459.709991 C 246.660004 468.799988 248.279999 472.950012 252.240005 469.26001 C 253.479996 468.100006 255.699997 466.850006 257.170013 466.48999 C 260.380005 465.690002 262 468 262 473.380005 C 262 477.350006 264.77002 479.98999 268.970001 480.019989 C 272.540009 480.040009 274.320007 481.420013 273.619995 483.630005 C 272.490021 487.140015 262.320007 496.48999 256.029999 499.790009 L 249.75 503.079987 L 250.240005 500.519989 C 250.949997 496.820007 249.869995 496.700012 244.800003 499.910004 C 242.330002 501.480011 238.559998 503.320007 236.410004 504.019989 C 234.259995 504.709991 231.600006 505.660004 230.5 506.130005 C 225.270004 508.369995 219.690002 509.929993 218.839996 509.399994 C 218.289993 509.059998 218.539993 507.820007 219.449997 506.440002 C 221.460007 503.369995 221.410004 502.619995 219.25 503.480011 C 218.289993 503.859985 216.820007 504.320007 216 504.51001 C 215.179993 504.700012 212.529999 505.559998 210.119995 506.420013 C 207.720001 507.290009 204.649994 508 203.309998 508 C 201.970001 508 200.110001 508.390015 199.179993 508.880005 C 196.389999 510.329987 182 511.339996 182 510.079987 Z M 193.039993 406.329987 C 186.449997 403.049988 185.240005 401.5 187.389999 399.119995 C 189 397.339996 188.789993 397.25 182.050003 396.769989 C 176.399994 396.369995 173.970001 395.619995 169.5 392.910004 C 166.449997 391.059998 162.550003 388.100006 160.820007 386.320007 C 158.190002 383.600006 157.889999 382.839996 158.970001 381.540009 C 160.029999 380.26001 159.970001 380 158.589996 380 C 156.460007 380 147.460007 375.5 143.210007 372.299988 C 141.400009 370.950012 138.100006 367.529999 135.87001 364.720001 C 132.020004 359.839996 131.930008 359.570007 133.919998 358.839996 C 137.089996 357.660004 136.430008 356.459991 131.75 354.920013 C 126.239998 353.109985 115.260002 342.399994 111.160004 334.850006 L 108.089996 329.190002 L 110.550003 328.579987 C 111.900002 328.23999 112.980003 327.630005 112.949997 327.22998 C 112.919998 326.829987 110.779999 325.119995 108.199997 323.419983 C 101.589996 319.100006 94.660004 310.079987 91.060005 301.130005 C 87.310005 291.820007 87.220001 290.589996 90.349998 291.369995 C 94.43 292.399994 94.240005 290.709991 89.800003 286.380005 C 80.550003 277.359985 76.18 269.309998 73.5 256.350006 C 71.870003 248.440002 72.169998 246.450012 74.849998 247.52002 C 75.760002 247.880005 82.349998 249.73999 89.5 251.649994 C 96.650002 253.570007 108.349998 256.710022 115.5 258.640015 C 122.650002 260.570007 134.570007 263.73999 142 265.679993 C 149.430008 267.609985 160.449997 270.539978 166.5 272.190002 C 172.550003 273.830017 181.100006 276.079987 185.5 277.169983 C 189.899994 278.269989 198.199997 280.549988 203.949997 282.23999 C 209.699997 283.929993 215.779999 285.350006 217.449997 285.399994 C 219.130005 285.459991 220.729996 285.759979 221 286.089996 C 221.270004 286.410004 223.300003 287.169983 225.5 287.779999 C 245.570007 293.359985 255.070007 296.059998 258.240021 297.100006 C 261.110016 298.039978 262.580017 298.059998 264.529999 297.169983 C 266.600006 296.22998 267.550018 296.309998 269.540009 297.619995 C 270.890015 298.5 272 299.630005 272 300.119995 C 272 300.600006 272.869995 301 273.920013 301 C 274.980011 301 279.540009 302.889984 284.050018 305.209991 C 292.98999 309.789978 302.910004 318.679993 311.470001 329.75 C 316.799988 336.649994 317.220001 336.660004 321.190002 330.139984 C 322.399994 328.139984 326.769989 321.320007 330.899994 315 C 339.600006 301.679993 342.769989 294.519989 343.630005 286.22998 C 344.279999 280.079987 343.959991 279.339996 338.109985 273.299988 C 336.179993 271.309998 334.940002 272.890015 334.329987 278.130005 C 333.630005 284.119995 330.230011 290.470001 325.790009 294.039978 C 322.410004 296.759979 321.720001 296.949982 318.019989 296.119995 C 315.790009 295.609985 312.920013 294.519989 311.640015 293.679993 C 310.119995 292.690002 305.829987 291.98999 299.200012 291.669983 C 293.630005 291.389984 288.660004 290.910004 288.140015 290.589996 C 286.990021 289.880005 272.26001 287.679993 269.5 287.809998 C 268.399994 287.859985 266.880005 288.820007 266.130005 289.949982 C 264.02002 293.100006 260.320007 292.559998 257.960022 288.75 C 254.820007 283.649994 254.410004 280.899994 256.580017 279.320007 C 258.240021 278.100006 258.290009 277.699982 257.050018 275.72998 C 253.710007 270.429993 253.009995 268.169983 253.009995 262.660004 C 253 257.72998 253.300003 256.72998 254.919998 256.309998 C 256.740021 255.839996 256.76001 255.580017 255.360001 251.649994 C 254.369995 248.910004 253.979996 244.779999 254.179993 239.5 L 254.5 231.5 L 249.729996 231.359985 C 244.809998 231.210022 242.910004 232.640015 243.539993 236 C 245.039993 243.97998 245.160004 246 244.149994 246 C 243.539993 246 239.139999 244.200012 234.380005 242 C 224 237.210022 219.399994 236.799988 217.979996 240.570007 C 217.440002 241.97998 217 244.450012 217 246.070007 C 217 249.380005 215.089996 250.049988 214.289993 247 C 214 245.899994 213.139999 245 212.380005 245 C 211.350006 245 211 243.410004 211.009995 238.75 C 211.029999 229.72998 211.690002 227.880005 214.610001 228.619995 C 217.389999 229.309998 217.470001 228.880005 215.529999 223.5 C 213.360001 217.470001 213.580002 205.140015 215.960007 199.580017 C 218.020004 194.790009 218.820007 194.220001 220.779999 196.179993 C 222.710007 198.109985 223.470001 196.200012 222.190002 192.649994 C 220.089996 186.850006 220.729996 179.5 224.020004 171.679993 C 225.679993 167.730011 227.940002 163.380005 229.039993 162 L 231.029999 159.5 L 233.330002 162.279999 L 235.619995 165.049988 L 235.580002 156.779999 C 235.550003 149.25 235.880005 147.820007 239.199997 141 C 243.100006 132.98999 249.270004 125 251.539993 125 C 252.309998 125 253.410004 125.899994 254 127 C 255.800003 130.359985 256.690002 129.269989 257.350006 122.899994 C 258.25 114.290009 262.850006 106.070007 271.690002 97.25 C 275.690002 93.26001 279.790009 90 280.800018 90 C 282.240021 90 283.730011 92.75 287.470001 102.25 C 307.790009 153.929993 319.609985 183.75 322.640015 191 C 324.589996 195.679993 327.679993 203.830017 329.5 209.119995 C 331.329987 214.410004 333.290009 219.589996 333.859985 220.619995 C 334.429993 221.649994 335.149994 224.130005 335.459991 226.109985 C 335.779999 228.100006 336.929993 230.529999 338.019989 231.52002 C 339.109985 232.5 340 233.679993 340 234.140015 C 340 235.169983 352.970001 268.76001 357.320007 279 C 360.380005 286.209991 360.5 287.019989 360.459991 300 C 360.429993 310.549988 360.049988 314.350006 358.700012 317.399994 C 357.75 319.549988 357.170013 321.509979 357.420013 321.75 C 357.660004 321.98999 360.700012 321.059998 364.179993 319.679993 C 374.369995 315.639984 378.959991 314.679993 388.5 314.589996 C 404.070007 314.440002 411.940002 318.859985 425.279999 335.259979 C 432.380005 343.98999 433.299988 352.75 427.75 358.73999 L 425.670013 360.980011 L 424.559998 358.73999 C 422.730011 355.079987 418.279999 353.529999 409.5 353.519989 C 402.390015 353.5 400.829987 353.859985 395.5 356.709991 C 382.420013 363.709991 380.149994 364.470001 377.420013 362.769989 C 376.829987 362.399994 372.209991 361.820007 367.160004 361.48999 C 362.109985 361.149994 356.970001 360.679993 355.73999 360.429993 C 354.51001 360.170013 351.359985 359.720001 348.75 359.420013 C 344.880005 358.970001 344 359.149994 344 360.420013 C 344 364.23999 359.200012 370.929993 369.480011 371.640015 C 382.089996 372.51001 381.470001 371.670013 376.890015 381.75 C 371.730011 393.119995 367.079987 402.059998 365.200012 404.25 C 364.040009 405.589996 362.149994 406 357.100006 405.98999 C 341.899994 405.950012 329.200012 400.540009 318.700012 389.619995 C 310.040009 380.609985 305.429993 373.48999 295.290009 353.5 C 283.179993 329.619995 282.540009 328.519989 280.429993 328.25 C 279.369995 328.109985 277.429993 328.829987 276.130005 329.839996 C 274.110016 331.419983 273.929993 332.009979 274.920013 333.839996 C 275.649994 335.220001 275.740021 336.630005 275.160004 337.75 C 274.660004 338.709991 274.610016 340.399994 275.059998 341.5 C 275.5 342.600006 275.890015 344.859985 275.929993 346.529999 C 275.970001 348.190002 276.700012 350.559998 277.559998 351.790009 C 279.330017 354.309998 278.809998 356.98999 275.740021 361.130005 C 274.660004 362.600006 273.980011 364.410004 274.240021 365.149994 C 274.5 365.890015 273.76001 367.070007 272.600006 367.76001 C 270.630005 368.940002 270.679993 368.980011 273.25 368.399994 C 274.76001 368.059998 276 368.01001 276 368.279999 C 276 369.230011 267.830017 381 266.649994 381.73999 C 265.990021 382.160004 264.670013 383.73999 263.710022 385.23999 C 260.029999 391.019989 248.5 392.950012 243.330002 388.649994 C 241.399994 387.049988 238.710007 386.119995 234.860001 385.730011 C 228.059998 385.049988 223.309998 382.76001 221.800003 379.450012 C 220.990005 377.679993 219.889999 377 217.800003 377 C 214.429993 377 208.029999 373.940002 202.789993 369.820007 C 199.149994 366.950012 199.029999 366.929993 196.289993 368.630005 C 188.809998 373.279999 187.270004 376.769989 190.949997 380.720001 C 192.619995 382.5 193.460007 382.679993 196.699997 381.929993 C 202.619995 380.559998 213 380.76001 213 382.25 C 213 382.940002 211.059998 385.059998 208.699997 386.950012 C 203.490005 391.130005 198.490005 397.329987 199.949997 397.820007 C 200.529999 398.01001 200.789993 398.529999 200.520004 398.970001 C 199.619995 400.429993 202.479996 401.859985 206.940002 402.179993 C 212 402.549988 213.160004 404.220001 209.809998 406.320007 C 205.5 409.029999 198.460007 409.029999 193.039993 406.329987 Z"/>
        <path id="path5" fill="#e52934" stroke="none" d="M 182 510.079987 C 182 508.269989 228.050003 456.519989 229.960007 456.200012 C 232.25 455.809998 237 461.420013 237 464.519989 C 237 467.179993 238.649994 468.589996 241.25 468.160004 C 243.139999 467.850006 243.270004 468.339996 243.020004 474.679993 C 242.850006 479.179993 244.550003 480.910004 249.740005 481.480011 C 251.110001 481.630005 252.539993 482.26001 252.919998 482.869995 C 253.419998 483.679993 254.169998 483.579987 255.559998 482.529999 C 258.540009 480.269989 258.899994 480.630005 258.779999 485.829987 C 258.630005 492.269989 259.429993 493.339996 263.880005 492.679993 L 267.5 492.140015 L 264.910004 494.149994 C 263.480011 495.25 259.490021 497.720001 256.029999 499.640015 L 249.740005 503.119995 L 250.240005 500.540009 C 250.949997 496.820007 249.869995 496.700012 244.800003 499.910004 C 242.330002 501.480011 238.559998 503.320007 236.410004 504.019989 C 234.259995 504.709991 231.600006 505.660004 230.5 506.130005 C 225.270004 508.369995 219.690002 509.929993 218.839996 509.399994 C 218.289993 509.059998 218.539993 507.820007 219.449997 506.440002 C 221.460007 503.369995 221.410004 502.619995 219.25 503.480011 C 218.289993 503.859985 216.820007 504.320007 216 504.51001 C 215.179993 504.700012 212.529999 505.559998 210.119995 506.420013 C 207.720001 507.290009 204.649994 508 203.309998 508 C 201.970001 508 200.110001 508.390015 199.179993 508.880005 C 196.399994 510.329987 182 511.339996 182 510.079987 Z M 340.5 403.600006 C 332.190002 400.959991 325.440002 396.630005 318.700012 389.619995 C 310.049988 380.619995 305.440002 373.51001 295.279999 353.5 C 290.809998 344.700012 285.880005 335.089996 284.339996 332.130005 C 281.380005 326.5 276.470001 321 274.399994 321 C 273.730011 321 271.990021 319.589996 270.540009 317.859985 C 268.619995 315.579987 266.820007 314.600006 263.950012 314.269989 C 261.550018 313.98999 260 314.22998 260 314.869995 C 260 316.22998 263.300018 318 265.830017 318 C 268.589996 318 269.360016 320.73999 266.960022 322.019989 C 264.610016 323.279999 264.5 324.350006 266.5 326.359985 C 268.830017 328.690002 268.290009 331.100006 264.75 334.149994 C 261.559998 336.890015 261.540009 336.959991 263.75 337.589996 C 264.990021 337.940002 266 338.540009 266 338.899994 C 266 339.779999 254.080002 347.559998 251.5 348.369995 C 249.059998 349.130005 242 355.5 242 356.940002 C 242 357.51001 242.850006 358.519989 243.899994 359.170013 C 245.330002 360.059998 245.509995 360.640015 244.649994 361.529999 C 244.020004 362.179993 241.020004 365.51001 238 368.929993 C 232.380005 375.290009 225.619995 379.820007 224.5 377.98999 C 224.160004 377.450012 221.869995 377 219.410004 377 C 214.100006 377 207.610001 373.910004 200.589996 368.029999 C 195 363.339996 192.330002 363.089996 192.820007 367.269989 C 193.050003 369.179993 192.589996 370.23999 191.320007 370.76001 C 186.509995 372.75 177.839996 378.429993 176.880005 380.220001 C 176.289993 381.329987 175.990005 383.75 176.199997 385.609985 C 176.419998 387.480011 176.190002 389 175.690002 389 C 174.470001 389 175.860001 394.290009 177.330002 395.220001 C 178.059998 395.690002 177.710007 395.980011 176.410004 395.980011 C 173.940002 396 163.550003 389.429993 160.100006 385.670013 C 158.110001 383.5 157.919998 382.799988 158.980011 381.529999 C 160.029999 380.26001 159.960007 380 158.589996 380 C 156.460007 380 147.460007 375.5 143.210007 372.299988 C 141.400009 370.950012 138.100006 367.529999 135.87001 364.720001 C 132.020004 359.839996 131.930008 359.570007 133.919998 358.839996 C 137.089996 357.660004 136.430008 356.459991 131.75 354.920013 C 126.239998 353.109985 115.260002 342.399994 111.160004 334.850006 L 108.089996 329.190002 L 110.550003 328.579987 C 111.900002 328.23999 112.980003 327.630005 112.949997 327.22998 C 112.919998 326.829987 110.779999 325.119995 108.199997 323.419983 C 101.589996 319.100006 94.660004 310.079987 91.060005 301.130005 C 87.310005 291.820007 87.220001 290.589996 90.349998 291.369995 C 94.43 292.399994 94.240005 290.709991 89.800003 286.380005 C 80.550003 277.359985 76.18 269.309998 73.5 256.350006 C 71.870003 248.440002 72.169998 246.450012 74.849998 247.52002 C 75.760002 247.880005 82.240005 249.710022 89.25 251.589996 C 96.260002 253.470001 107.959999 256.609985 115.25 258.580017 C 122.540001 260.539978 134.570007 263.73999 142 265.679993 C 149.430008 267.609985 160.449997 270.539978 166.5 272.190002 C 172.550003 273.830017 181.100006 276.079987 185.5 277.169983 C 189.899994 278.269989 198.199997 280.549988 203.949997 282.23999 C 209.699997 283.929993 215.779999 285.350006 217.449997 285.399994 C 219.130005 285.459991 220.729996 285.759979 221 286.089996 C 221.270004 286.410004 223.300003 287.169983 225.5 287.779999 C 227.699997 288.389984 235.350006 290.539978 242.5 292.549988 C 249.649994 294.549988 260.899994 297.619995 267.5 299.350006 C 275.059998 301.339996 282.02002 303.929993 286.320007 306.339996 C 293.76001 310.519989 303.869995 319.940002 311.48999 329.789978 C 317.269989 337.26001 316.25 337.799988 326.559998 321.859985 C 337.769989 304.539978 340.76001 299.029999 342.450012 292.539978 C 344.200012 285.809998 344.48999 278.419983 343.029999 277.519989 C 342.48999 277.190002 341.549988 275.029999 340.920013 272.720001 C 339.470001 267.309998 336.359985 262.919983 334.48999 263.640015 C 333.700012 263.940002 331.940002 263.309998 330.570007 262.22998 C 329.190002 261.149994 327.040009 260.330017 325.790009 260.399994 C 323.320007 260.529999 323.140015 261.669983 324.549988 267.929993 L 325.320007 271.350006 L 320.910004 267.929993 C 318.480011 266.039978 316.269989 264.23999 316 263.919983 C 315.730011 263.609985 313.709991 262.140015 311.519989 260.669983 C 306.619995 257.390015 300.899994 257.059998 298.869995 259.960022 C 297.51001 261.899994 297.450012 261.899994 292 259.850006 C 288.980011 258.710022 284.540009 257.299988 282.149994 256.700012 C 278.080017 255.690002 277.679993 255.779999 275.950012 258.059998 C 274.670013 259.76001 273.339996 260.399994 271.550018 260.179993 C 270.110016 260 269 260.359985 269 261.01001 C 269 262.75 262.910004 261.160004 260.26001 258.72998 C 256.839996 255.589996 254 248.869995 254.009995 243.929993 C 254.009995 237.72998 255.820007 231.859985 257.890015 231.320007 C 259.339996 230.940002 259.610016 229.679993 259.559998 223.679993 C 259.52002 219.289978 260.240021 214.059998 261.420013 210.220001 C 262.559998 206.480011 262.960022 203.609985 262.420013 203.140015 C 261.910004 202.700012 258.589996 202.609985 255.029999 202.919983 L 248.559998 203.5 L 247.440002 207.5 C 246.639999 210.390015 245.729996 211.589996 244.160004 211.820007 C 242.970001 212 242 212.559998 242 213.070007 C 242 214.899994 239.119995 213.940002 233.850006 210.359985 C 230.910004 208.359985 226.5 205.830017 224.059998 204.730011 L 219.630005 202.73999 L 217.899994 204.869995 C 215.929993 207.309998 214 207.660004 214 205.580017 C 214 203.450012 217.809998 195 218.759995 195 C 219.220001 195 220.130005 195.529999 220.779999 196.179993 C 222.710007 198.109985 223.470001 196.200012 222.190002 192.649994 C 220.089996 186.850006 220.729996 179.5 224.020004 171.679993 C 225.679993 167.730011 227.940002 163.380005 229.039993 162 L 231.029999 159.5 L 233.330002 162.279999 L 235.619995 165.049988 L 235.580002 156.779999 C 235.550003 149.25 235.880005 147.820007 239.199997 141 C 243.100006 132.98999 249.270004 125 251.539993 125 C 252.309998 125 253.410004 125.899994 254 127 C 255.800003 130.359985 256.690002 129.269989 257.350006 122.899994 C 258.25 114.290009 262.850006 106.070007 271.690002 97.25 C 275.690002 93.26001 279.790009 90 280.800018 90 C 282.240021 90 283.730011 92.75 287.470001 102.25 C 307.790009 153.929993 319.609985 183.75 322.640015 191 C 324.589996 195.679993 327.679993 203.830017 329.5 209.119995 C 331.329987 214.410004 333.290009 219.589996 333.859985 220.619995 C 334.429993 221.649994 335.149994 224.130005 335.459991 226.109985 C 335.779999 228.100006 336.929993 230.529999 338.019989 231.52002 C 339.109985 232.5 340 233.679993 340 234.140015 C 340 235.169983 352.970001 268.76001 357.320007 279 C 360.380005 286.209991 360.5 287.019989 360.459991 300 C 360.429993 310.549988 360.049988 314.350006 358.700012 317.399994 C 357.75 319.549988 357.170013 321.509979 357.420013 321.75 C 357.660004 321.98999 360.700012 321.059998 364.179993 319.679993 C 374.369995 315.639984 378.959991 314.679993 388.5 314.589996 C 404.070007 314.440002 411.940002 318.859985 425.279999 335.259979 C 432.380005 343.98999 433.299988 352.75 427.75 358.73999 L 425.670013 360.980011 L 424.559998 358.73999 C 423.940002 357.51001 422.149994 355.880005 420.570007 355.119995 C 416.76001 353.290009 405.920013 352.480011 402.269989 353.75 C 400.140015 354.5 398.329987 354.399994 395.429993 353.369995 C 392.940002 352.480011 387.299988 351.959991 380 351.959991 C 367.910004 351.950012 356.170013 350.859985 342 348.440002 C 337.329987 347.640015 332.709991 346.98999 331.75 346.98999 C 326.320007 347.01001 333.920013 355.980011 346.26001 364.109985 C 351.079987 367.279999 355.920013 370.160004 357.01001 370.5 C 358.109985 370.850006 359.040009 371.670013 359.089996 372.320007 C 359.429993 376.679993 358.609985 382.660004 357.420013 384.48999 C 356.640015 385.670013 355.730011 389.309998 355.390015 392.570007 C 354.809998 398.079987 354.459991 398.73999 350.540009 401.75 C 345.799988 405.390015 346.01001 405.350006 340.5 403.600006 Z"/>
        <path id="path6" fill="#ed612e" stroke="none" d="M 182 510.070007 C 182 508.98999 217.740005 467.73999 220.830002 465.25 C 225.070007 461.839996 232 466.769989 232 473.200012 C 232 477.100006 233.399994 478.230011 237.050003 477.279999 C 239.089996 476.73999 239.229996 476.950012 238.630005 479.600006 C 236.740005 487.820007 236.740005 489.679993 238.600006 490.399994 C 242.160004 491.769989 250.839996 492.160004 252.919998 491.040009 C 254.059998 490.429993 255 490.279999 255 490.709991 C 254.990005 493.559998 243.580002 501.709991 236.339996 504.040009 C 234.229996 504.720001 231.600006 505.660004 230.5 506.130005 C 225.270004 508.369995 219.690002 509.929993 218.839996 509.399994 C 218.289993 509.059998 218.539993 507.820007 219.449997 506.440002 C 221.460007 503.369995 221.410004 502.619995 219.25 503.480011 C 218.289993 503.859985 216.820007 504.320007 216 504.51001 C 215.179993 504.700012 212.529999 505.559998 210.119995 506.420013 C 207.720001 507.290009 204.649994 508 203.309998 508 C 201.970001 508 200.110001 508.390015 199.179993 508.880005 C 196.369995 510.339996 182 511.339996 182 510.070007 Z M 322.910004 393.23999 C 314.929993 387.869995 306.73999 376.089996 295.290009 353.5 C 280.809998 324.929993 278.950012 321.889984 272.559998 316.259979 C 267.200012 311.539978 256.75 307.039978 249.410004 306.279999 L 244.309998 305.75 L 244.770004 308.889984 C 245.020004 310.609985 244.669998 312.690002 243.990005 313.509979 C 242.360001 315.47998 244.330002 318 247.5 318 C 251.630005 318 256.080017 319.25 255.729996 320.309998 C 255.539993 320.889984 250.949997 322.380005 245.539993 323.609985 C 236.309998 325.72998 233.600006 327.139984 234.339996 329.47998 C 234.520004 330.019989 236.649994 330.839996 239.080002 331.289978 C 246.320007 332.619995 246.830002 332.959991 244 334.539978 C 242.619995 335.299988 239.380005 336.649994 236.779999 337.529999 C 231.830002 339.220001 221.600006 347.540009 222.559998 349.089996 C 222.869995 349.589996 225.149994 350 227.639999 350 C 233.729996 350 233 351.369995 224.25 356.390015 C 220.309998 358.649994 214.979996 362.410004 212.389999 364.75 C 207.080002 369.559998 205 370.089996 205 366.640015 C 205 364.579987 204.389999 364.190002 200.369995 363.640015 C 194.419998 362.820007 190.350006 360.26001 184.029999 353.350006 L 178.949997 347.779999 L 173.479996 350.640015 C 170.470001 352.209991 167.029999 354.230011 165.830002 355.130005 C 163.050003 357.220001 161.919998 364.399994 163.779999 368.209991 C 164.75 370.190002 164.820007 371.459991 164.050003 372.899994 C 162.600006 375.630005 162.710007 376 165 376 C 168.240005 376 167.289993 378.679993 163.75 379.5 C 159.279999 380.540009 157.309998 380.190002 151.51001 377.290009 C 144.430008 373.73999 140.520004 370.600006 135.87001 364.720001 C 132.020004 359.839996 131.930008 359.570007 133.919998 358.839996 C 137.089996 357.660004 136.430008 356.459991 131.75 354.920013 C 126.239998 353.109985 115.260002 342.399994 111.160004 334.850006 L 108.089996 329.190002 L 110.550003 328.579987 C 111.900002 328.23999 112.980003 327.630005 112.949997 327.22998 C 112.919998 326.829987 110.779999 325.119995 108.199997 323.419983 C 101.589996 319.100006 94.660004 310.079987 91.060005 301.130005 C 87.310005 291.820007 87.220001 290.589996 90.349998 291.369995 C 94.43 292.399994 94.240005 290.709991 89.800003 286.380005 C 80.550003 277.359985 76.18 269.309998 73.5 256.350006 C 71.870003 248.440002 72.169998 246.450012 74.849998 247.52002 C 75.760002 247.880005 82.240005 249.710022 89.25 251.589996 C 96.260002 253.470001 107.959999 256.609985 115.25 258.580017 C 122.540001 260.539978 134.570007 263.73999 142 265.679993 C 149.430008 267.609985 160.449997 270.539978 166.5 272.190002 C 172.550003 273.830017 181.100006 276.079987 185.5 277.169983 C 189.899994 278.269989 198.199997 280.549988 203.949997 282.23999 C 209.699997 283.929993 215.779999 285.350006 217.449997 285.399994 C 219.130005 285.459991 220.729996 285.759979 221 286.089996 C 221.270004 286.410004 223.300003 287.169983 225.5 287.779999 C 227.699997 288.389984 235.350006 290.539978 242.5 292.549988 C 249.649994 294.549988 260.899994 297.619995 267.5 299.350006 C 286.110016 304.25 296.880005 311.449982 309.690002 327.549988 C 318.380005 338.459991 324.359985 345.309998 334.25 355.619995 C 339.609985 361.209991 344 366.200012 344 366.709991 C 344 367.209991 342.619995 368.950012 340.920013 370.559998 C 336.890015 374.410004 330 384.76001 330 386.959991 C 330 389.01001 327.149994 395 326.179993 394.98999 C 325.799988 394.98999 324.329987 394.200012 322.910004 393.23999 Z M 167.919998 338.950012 C 165.75 337.609985 164.539993 339.190002 166.589996 340.690002 C 167.940002 341.679993 168.589996 341.73999 168.860001 340.920013 C 169.070007 340.290009 168.649994 339.399994 167.919998 338.950012 Z M 418.48999 349.950012 C 410.579987 347.140015 398.690002 345.670013 383 345.549988 C 375.019989 345.48999 361.410004 344.570007 352.75 343.5 C 334.839996 341.290009 334.359985 340.920013 340.459991 334.169983 C 345.059998 329.089996 355.26001 321.720001 358.170013 321.399994 C 359.450012 321.259979 364.549988 319.690002 369.5 317.919983 C 377.089996 315.199982 379.98999 314.679993 388 314.600006 C 400.859985 314.459991 408.209991 317.209991 415.98999 325.059998 C 424.519989 333.660004 428.970001 339.549988 430.640015 344.470001 C 432.01001 348.48999 432.019989 349.130005 430.660004 350.480011 C 428.75 352.399994 424.890015 352.230011 418.48999 349.950012 Z M 357.48999 312.759979 C 356.339996 310.139984 353.619995 309.380005 350.619995 310.829987 C 348.320007 311.949982 343.890015 312.789978 337.329987 313.339996 C 333.359985 313.679993 333.209991 313.589996 334.019989 311.440002 C 334.5 310.190002 336.23999 306.769989 337.890015 303.839996 C 341.26001 297.859985 344 288.470001 344 282.880005 C 344 280.850006 342.670013 273.859985 341.049988 267.339996 C 339.429993 260.830017 337.119995 251 335.920013 245.5 C 333.959991 236.5 332.880005 234.059998 330.839996 234.02002 C 330.480011 234.01001 329.869995 236.359985 329.480011 239.25 C 328.369995 247.539978 327.470001 247.869995 321.579987 242.210022 C 314.670013 235.549988 311.109985 233.26001 306.98999 232.859985 L 303.5 232.51001 L 303.720001 237.76001 C 303.839996 240.640015 303.670013 243 303.339996 243 C 303.01001 243 299.709991 240.75 296.01001 238.01001 C 286.970001 231.309998 282.950012 229.660004 279.300018 231.169983 C 277.76001 231.809998 276.27002 232.390015 276 232.450012 C 275.730011 232.51001 273.550018 233.820007 271.170013 235.339996 C 267.52002 237.690002 266.600006 237.919983 265.27002 236.809998 C 262.740021 234.720001 260.050018 227.850006 260.02002 223.429993 C 259.970001 214.690002 264.720001 204.910004 268.330017 206.299988 C 269.399994 206.709991 269.869995 205.48999 270.279999 201.169983 C 270.809998 195.709991 276.779999 180.869995 279 179.5 C 281 178.269989 279.910004 175.480011 275.790009 171.290009 C 271.910004 167.330017 268.649994 165.890015 267.830017 167.769989 C 267.649994 168.190002 265.929993 169.76001 264 171.23999 C 260.779999 173.730011 260.5 174.380005 260.5 179.230011 C 260.5 184.320007 260.410004 184.5 257.75 184.459991 C 256.240021 184.440002 255 184.809998 255 185.279999 C 255 186.940002 250.759995 184.75 243.669998 179.429993 C 234.25 172.350006 231.639999 172.230011 226.630005 178.660004 C 224.619995 181.25 222.990005 184.480011 222.979996 185.910004 C 222.979996 187.339996 222.529999 189.179993 222 190 C 221.320007 191.059998 221.029999 189.630005 221.020004 185.179993 C 221 178.470001 224.910004 167.149994 229.039993 162 L 231.029999 159.5 L 233.330002 162.279999 L 235.619995 165.049988 L 235.580002 156.779999 C 235.550003 149.25 235.880005 147.820007 239.199997 141 C 243.100006 132.98999 249.270004 125 251.539993 125 C 252.309998 125 253.410004 125.899994 254 127 C 255.800003 130.359985 256.690002 129.269989 257.350006 122.899994 C 258.25 114.290009 262.850006 106.070007 271.690002 97.25 C 275.690002 93.26001 279.790009 90 280.800018 90 C 282.240021 90 283.730011 92.75 287.470001 102.25 C 307.790009 153.929993 319.609985 183.75 322.640015 191 C 324.589996 195.679993 327.679993 203.830017 329.5 209.119995 C 331.329987 214.410004 333.290009 219.589996 333.859985 220.619995 C 334.429993 221.649994 335.149994 224.130005 335.459991 226.109985 C 335.779999 228.100006 336.929993 230.529999 338.019989 231.52002 C 339.109985 232.5 340 233.679993 340 234.140015 C 340 235 351.890015 266.01001 357.170013 278.940002 C 360.579987 287.279999 361.73999 297.299988 360.549988 308.350006 C 359.799988 315.389984 359.089996 316.410004 357.48999 312.759979 Z"/>
        <path id="path7" fill="#ea4430" stroke="none" d="M 182 510.049988 C 182 508.809998 204.119995 483.519989 207.679993 480.700012 C 209.889999 478.940002 210.050003 478.959991 213.710007 481.450012 C 215.770004 482.850006 218.089996 484 218.860001 484 C 219.960007 484 220.119995 485.070007 219.600006 488.950012 C 219.020004 493.350006 219.179993 494.029999 221.089996 495.049988 C 222.279999 495.679993 224.559998 495.940002 226.169998 495.619995 C 229.279999 494.98999 229.270004 495.670013 226.119995 499.329987 C 224.639999 501.049988 219.399994 503.730011 216 504.51001 C 215.179993 504.690002 212.529999 505.559998 210.119995 506.420013 C 207.720001 507.290009 204.649994 508 203.309998 508 C 201.970001 508 200.110001 508.390015 199.179993 508.880005 C 196.350006 510.350006 182 511.339996 182 510.049988 Z M 218.690002 509.359985 C 218.039993 508.709991 220.990005 502.98999 221.970001 503.019989 C 222.259995 503.019989 224.520004 503.649994 227 504.410004 C 229.839996 505.279999 230.949997 506.01001 230 506.380005 C 227.990005 507.170013 219.800003 510 219.539993 510 C 219.429993 510 219.050003 509.709991 218.690002 509.359985 Z M 233.25 498.339996 C 231.610001 497.679993 231.669998 495.190002 233.429993 490.200012 L 234.860001 486.149994 L 231.910004 487.179993 C 227.550003 488.700012 226 486.929993 226 480.429993 C 226 475.25 225.889999 475.049988 221.789993 472.609985 C 218.440002 470.609985 217.270004 470.339996 216.039993 471.269989 C 214.300003 472.589996 218.699997 467.170013 220.929993 465.25 C 224.970001 461.769989 232 466.809998 232 473.200012 C 232 477.100006 233.399994 478.230011 237.050003 477.279999 C 239.089996 476.73999 239.229996 476.950012 238.630005 479.600006 C 236.740005 487.820007 236.740005 489.679993 238.600006 490.399994 C 242.160004 491.769989 250.839996 492.160004 252.919998 491.040009 C 254.059998 490.429993 255 490.279999 255 490.709991 C 255 491.98999 250.679993 496.589996 248.320007 497.839996 C 246.169998 498.980011 235.699997 499.320007 233.25 498.339996 Z M 322.910004 393.23999 C 320.019989 391.299988 316.359985 387.51001 311.579987 381.5 C 307.779999 376.720001 302.190002 367.970001 304.070007 369.75 C 306.190002 371.75 309 371.279999 309 368.929993 C 309 366 310.809998 363 312.579987 363 C 313.399994 363 315.820007 363.890015 317.940002 364.970001 C 321.790009 366.929993 321.820007 366.929993 324.329987 364.950012 C 327.049988 362.820007 329.579987 356.75 329.109985 353.5 C 328.950012 352.399994 328.089996 350.600006 327.200012 349.5 C 326.309998 348.399994 329.299988 351.100006 333.859985 355.5 C 345.079987 366.339996 345.019989 366.170013 340.040009 371.570007 C 335.089996 376.940002 330 384.779999 330 387.040009 C 330 389.029999 327.130005 395 326.179993 394.98999 C 325.799988 394.98999 324.329987 394.200012 322.910004 393.23999 Z M 157.910004 379.950012 C 150.259995 377.890015 141.529999 371.880005 135.929993 364.790009 L 131.940002 359.73999 L 134.519989 358.410004 C 135.940002 357.670013 138.369995 357.320007 139.959991 357.640015 C 144.779999 358.609985 153.73999 355 152.300003 352.679993 C 151.929993 352.079987 151.599991 350.26001 151.559998 348.640015 C 151.509995 346.23999 150.899994 345.480011 148.289993 344.589996 C 143.279999 342.880005 142.580002 341.709991 144.410004 338.160004 C 145.289993 336.480011 146 334.039978 146 332.75 C 146 331 146.839996 330.100006 149.319992 329.199982 C 151.149994 328.539978 153.369995 328 154.25 328 C 156.269989 328 159.209991 325.149994 158.449997 323.919983 C 157.690002 322.690002 159.669998 322.75 162.069992 324.039978 C 163.12999 324.600006 164 325.98999 164 327.109985 C 164 332.039978 173.830002 342.720001 181.5 346.109985 C 184.25 347.329987 185.940002 348.51001 185.25 348.75 C 183.149994 349.450012 183.850006 352.48999 186.75 355.200012 C 189.289993 357.570007 195.059998 361 196.520004 361 C 196.860001 361 196.850006 358.630005 196.490005 355.730011 C 195.710007 349.549988 196.309998 348.779999 205.270004 344.450012 C 213.929993 340.26001 215.089996 337.839996 209.059998 336.51001 C 205.270004 335.679993 204.020004 334.059998 205.059998 331.309998 C 206.229996 328.22998 209.470001 326.380005 217.059998 324.48999 C 225.630005 322.350006 227.100006 321.419983 224.729996 319.609985 C 223.759995 318.859985 221.279999 317.970001 219.229996 317.630005 C 214.050003 316.759979 212.649994 315.669983 213.460007 313.119995 C 214.460007 309.97998 216.669998 309.199982 226.559998 308.48999 C 231.470001 308.130005 235.669998 307.660004 235.889999 307.449982 C 236.740005 306.589996 233.330002 303.690002 225.100006 298.269989 C 218.729996 294.079987 217 292.5 218.410004 292.199982 C 219.720001 291.919983 218.210007 290.859985 213.610001 288.829987 C 204.199997 284.690002 202.080002 285.529999 209.5 290.459991 C 212.770004 292.619995 216.440002 295.549988 217.660004 296.949982 L 219.889999 299.5 L 217.529999 301.889984 C 215.520004 303.929993 213.759995 304.399994 205.589996 305.089996 C 194.759995 306 194.529999 306.100006 190.059998 311.23999 L 186.800003 314.98999 L 191.149994 316.850006 C 193.539993 317.869995 196.509995 319.029999 197.75 319.419983 C 198.990005 319.809998 200 320.459991 200 320.850006 C 200 321.970001 195.020004 324.570007 189.330002 326.419983 C 182.940002 328.509979 180.550003 331.619995 181.770004 336.279999 C 183.690002 343.600006 180.440002 345.049988 173.899994 339.799988 C 167.550003 334.699982 163.699997 327 167.5 327 C 170.210007 327 169.070007 325.539978 164.449997 323.079987 C 161.949997 321.759979 158.949997 319.339996 157.800003 317.720001 C 155.769989 314.869995 155.660004 314.839996 154.599991 316.779999 C 153.529999 318.72998 153.360001 318.73999 149 317.119995 C 143.869995 315.220001 142.940002 312.859985 145.860001 309.109985 L 147.720001 306.720001 L 149.860001 308.859985 C 153.529999 312.529999 154.089996 311.209991 150.949997 306.259979 C 148.800003 302.880005 148.110001 300.779999 148.519989 298.919983 C 149.099991 296.259979 148.099991 294.880005 144.679993 293.660004 C 143.190002 293.130005 142.98999 293.389984 143.539993 295.130005 C 144.410004 297.869995 142.649994 298.970001 137.330002 298.97998 C 132.019989 299 130.009995 299.789978 129.979996 301.859985 C 129.970001 302.759979 129.059998 305.470001 127.970001 307.880005 C 125.529999 313.25 126.239998 314.380005 133.039993 316.009979 C 139.519989 317.559998 142.869995 320.199982 142.289993 323.289978 C 141.830002 325.669983 138.160004 327.320007 127.480003 329.959991 C 122.269997 331.25 119.830002 335.070007 120.68 340.589996 C 121.010002 342.73999 121.730003 345.070007 122.279999 345.769989 C 122.830002 346.470001 123.089996 347.23999 122.849998 347.480011 C 121.82 348.51001 113.980003 340.029999 111.160004 334.850006 L 108.089996 329.190002 L 110.550003 328.579987 C 111.900002 328.23999 112.980003 327.630005 112.949997 327.22998 C 112.919998 326.829987 110.779999 325.119995 108.199997 323.419983 C 101.589996 319.100006 94.659996 310.079987 91.059998 301.130005 C 87.309998 291.820007 87.220001 290.589996 90.349998 291.369995 C 94.43 292.399994 94.239998 290.709991 89.799995 286.380005 C 80.549995 277.359985 76.18 269.309998 73.5 256.350006 C 71.869995 248.440002 72.169998 246.450012 74.849998 247.52002 C 75.759995 247.880005 82.349998 249.73999 89.5 251.649994 C 96.650002 253.570007 108.349998 256.710022 115.5 258.640015 C 122.650002 260.570007 134.569992 263.73999 142 265.679993 C 149.429993 267.609985 160.449997 270.539978 166.5 272.190002 C 172.550003 273.830017 181.100006 276.079987 185.5 277.169983 C 189.899994 278.269989 198.199997 280.549988 203.949997 282.23999 C 209.699997 283.929993 215.779999 285.350006 217.449997 285.399994 C 219.130005 285.459991 220.729996 285.759979 221 286.089996 C 221.270004 286.410004 223.300003 287.169983 225.5 287.779999 C 227.699997 288.389984 235.350006 290.539978 242.5 292.549988 C 249.649994 294.549988 260.899994 297.619995 267.5 299.350006 C 282.25 303.22998 290.769989 307.829987 299.880005 316.839996 C 315.209991 331.98999 319.299988 339.959991 314.899994 346.140015 C 311.570007 350.820007 309.980011 349.980011 300.649994 338.670013 C 296.48999 333.630005 295 332.899994 295 335.919983 C 295 338.820007 293.929993 341 292.51001 341 C 291.070007 341 284 333.529999 284 332.019989 C 284 329.869995 276.839996 320.029999 272.519989 316.220001 C 267.199982 311.539978 256.72998 307.039978 249.410004 306.279999 L 244.309998 305.75 L 244.770004 308.889984 C 245.020004 310.609985 244.669998 312.690002 243.990005 313.509979 C 242.360001 315.47998 244.330002 318 247.5 318 C 251.630005 318 256.079987 319.25 255.729996 320.309998 C 255.539993 320.889984 250.949997 322.380005 245.539993 323.609985 C 236.309998 325.72998 233.600006 327.139984 234.339996 329.47998 C 234.520004 330.019989 236.649994 330.839996 239.080002 331.289978 C 246.320007 332.619995 246.830002 332.959991 244 334.539978 C 242.619995 335.299988 239.380005 336.649994 236.779999 337.529999 C 231.830002 339.220001 221.600006 347.540009 222.559998 349.089996 C 222.869995 349.589996 225.149994 350 227.639999 350 C 233.729996 350 233 351.369995 224.25 356.390015 C 220.309998 358.649994 214.979996 362.410004 212.389999 364.75 C 207.080002 369.559998 205 370.089996 205 366.640015 C 205 364.579987 204.389999 364.190002 200.369995 363.640015 C 194.419998 362.820007 190.350006 360.26001 184.029999 353.350006 L 178.949997 347.779999 L 173.479996 350.640015 C 170.470001 352.209991 167.029999 354.230011 165.830002 355.130005 C 163.050003 357.220001 161.919998 364.399994 163.779999 368.209991 C 164.75 370.190002 164.820007 371.459991 164.050003 372.899994 C 162.599991 375.630005 162.709991 376 165 376 C 166.100006 376 167 376.559998 167 377.26001 C 167 378.950012 160.910004 380.76001 157.910004 379.950012 Z M 167.919998 338.950012 C 165.75 337.609985 164.539993 339.190002 166.589996 340.690002 C 167.940002 341.679993 168.589996 341.73999 168.860001 340.920013 C 169.070007 340.290009 168.649994 339.399994 167.919998 338.950012 Z M 418.48999 349.950012 C 410.579987 347.140015 398.690002 345.670013 383 345.549988 C 375.019989 345.48999 361.410004 344.570007 352.75 343.5 C 334.839996 341.290009 334.359985 340.920013 340.459991 334.169983 C 345.059998 329.089996 355.26001 321.720001 358.170013 321.399994 C 359.450012 321.259979 364.549988 319.690002 369.5 317.919983 C 386.670013 311.779999 403.75 313.820007 414.600006 323.320007 C 419.130005 327.279999 423.049988 332.190002 423.369995 334.289978 C 423.470001 334.949982 423.880005 336.019989 424.269989 336.649994 C 425.5 338.609985 422.859985 338.779999 411.5 337.440002 C 405.450012 336.730011 393.980011 335.440002 386 334.559998 C 378.019989 333.679993 368.220001 332.519989 364.209991 331.97998 C 360.200012 331.440002 355.359985 331 353.459991 331 C 350.549988 331 350 330.639984 349.970001 328.75 C 349.950012 326.690002 349.649994 326.820007 346.470001 330.23999 C 344.559998 332.289978 343 334.389984 343 334.910004 C 343 335.429993 345.589996 336.140015 348.75 336.480011 C 351.910004 336.820007 357.420013 337.48999 361 337.970001 C 377.73999 340.220001 385.279999 340.98999 395 341.420013 C 400.769989 341.679993 409.769989 342.679993 415 343.640015 C 420.230011 344.609985 425.940002 345.339996 427.709991 345.269989 C 431.470001 345.130005 433.100006 348.040009 430.640015 350.5 C 428.75 352.399994 424.869995 352.220001 418.48999 349.950012 Z M 353.130005 325.25 C 354.399994 323.630005 354.350006 323.609985 352.5 324.970001 C 351.399994 325.769989 350.309998 326.559998 350.079987 326.720001 C 349.850006 326.869995 350.140015 327 350.709991 327 C 351.290009 327 352.369995 326.209991 353.130005 325.25 Z M 357.48999 312.759979 C 356.339996 310.139984 353.619995 309.380005 350.619995 310.829987 C 348.320007 311.949982 343.890015 312.789978 337.339996 313.339996 C 332.5 313.759979 332.470001 314.130005 338.170013 303.209991 C 340.269989 299.209991 342.269989 294.139984 342.619995 291.949982 C 343.119995 288.869995 343.549988 288.209991 344.540009 289.029999 C 345.48999 289.820007 346.23999 289.5 347.459991 287.799988 C 349.059998 285.549988 349.130005 285.539978 350.540009 287.419983 C 351.329987 288.47998 352.26001 290.850006 352.600006 292.679993 C 353.019989 294.910004 354.190002 296.589996 356.109985 297.72998 C 357.700012 298.660004 359 300.199982 359 301.130005 C 359 302.070007 359.48999 303 360.100006 303.199982 C 361.279999 303.589996 360.329987 315 359.119995 315 C 358.769989 315 358.029999 313.98999 357.48999 312.759979 Z M 354.98999 282.98999 C 353.880005 281.880005 351.619995 278.179993 349.970001 274.769989 C 348.320007 271.359985 345.929993 267.429993 344.660004 266.039978 C 341.410004 262.470001 337.519989 252.910004 335.48999 243.5 C 333.940002 236.299988 332.839996 234.059998 330.839996 234.02002 C 330.480011 234.01001 329.869995 236.359985 329.480011 239.25 C 328.369995 247.539978 327.470001 247.869995 321.579987 242.210022 C 314.670013 235.549988 311.109985 233.26001 306.98999 232.859985 L 303.5 232.51001 L 303.720001 237.76001 C 303.839996 240.640015 303.670013 243 303.339996 243 C 303.01001 243 299.709991 240.75 296.01001 238.01001 C 286.970001 231.309998 282.949982 229.660004 279.299988 231.169983 C 277.759979 231.809998 276.269989 232.390015 276 232.450012 C 275.72998 232.51001 273.549988 233.820007 271.169983 235.339996 C 267.519989 237.690002 266.600006 237.919983 265.269989 236.809998 C 262.73999 234.720001 260.049988 227.850006 260.019989 223.429993 C 259.970001 214.529999 264.720001 204.910004 268.459991 206.350006 C 269.470001 206.730011 270.019989 206.350006 270.049988 205.220001 C 270.070007 204.269989 270.789978 205.529999 271.649994 208 C 275.089996 218 284 221.559998 284 212.940002 C 284 209.359985 284.609985 209.02002 291.419983 208.869995 C 297.149994 208.72998 298.350006 209.289978 307.119995 216.149994 C 310.380005 218.700012 318.399994 218.850006 323.429993 216.470001 C 325.339996 215.559998 327.440002 215.160004 328.109985 215.570007 C 329.01001 216.119995 329.119995 215.460022 328.549988 212.910004 C 328.130005 211.029999 327.549988 208.419983 327.25 207.100006 C 326.149994 202.209991 328.890015 206.109985 330.529999 211.77002 C 331.440002 214.919983 332.799988 218.619995 333.540009 220 C 334.279999 221.380005 335.140015 224.130005 335.459991 226.109985 C 335.779999 228.100006 336.929993 230.529999 338.019989 231.52002 C 339.109985 232.5 340 233.679993 340 234.140015 C 340 235.059998 352.660004 268.100006 356.549988 277.320007 C 357.899994 280.509979 359 283.549988 359 284.070007 C 359 285.619995 357.119995 285.119995 354.98999 282.98999 Z M 314.290009 201.080017 C 306.279999 200.51001 305.970001 200.399994 301.75 196.25 C 297.579987 192.149994 295 190.910004 295 193 C 295 194.890015 292.369995 194 289.809998 191.25 C 287.630005 188.899994 287.22998 187.480011 287.070007 181.519989 C 286.859985 173.910004 286 171.019989 286 177.950012 C 286 182.209991 285.98999 182.220001 283.649994 180.690002 C 281.449982 179.25 281.130005 179.320007 278.539978 181.830017 C 276.130005 184.160004 275.919983 184.220001 276.889984 182.309998 C 277.509979 181.100006 278.459991 179.830017 279.009979 179.5 C 281 178.269989 279.910004 175.480011 275.789978 171.290009 C 271.910004 167.330017 268.649994 165.890015 267.829987 167.769989 C 267.649994 168.190002 265.929993 169.76001 264 171.23999 C 260.779999 173.730011 260.5 174.380005 260.5 179.230011 C 260.5 184.320007 260.410004 184.5 257.75 184.459991 C 256.23999 184.440002 255 184.809998 255 185.279999 C 255 186.940002 250.759995 184.75 243.669998 179.429993 C 234.25 172.350006 231.639999 172.230011 226.630005 178.660004 C 224.619995 181.25 222.990005 184.480011 222.979996 185.910004 C 222.979996 187.339996 222.529999 189.179993 222 190 C 221.320007 191.059998 221.029999 189.630005 221.020004 185.179993 C 221 178.470001 224.910004 167.149994 229.039993 162 L 231.029999 159.5 L 233.509995 162.5 C 235.399994 164.779999 235.990005 165.080017 236 163.75 C 236 162.790009 236.389999 162 236.860001 162 C 237.330002 162 238.119995 160.089996 238.610001 157.75 C 239.309998 154.419983 239.990005 153.429993 241.789993 153.179993 C 243.149994 152.980011 245.070007 151.269989 246.550003 148.929993 C 248.869995 145.23999 249.320007 145 253.869995 145 C 258.699982 145 258.75 145.029999 266.97998 154.040009 C 271.529999 159.019989 275.699982 162.929993 276.259979 162.75 C 276.809998 162.559998 277.779999 160.859985 278.399994 158.959991 L 279.529999 155.5 L 286.519989 155.850006 C 290.359985 156.040009 293.649994 156.339996 293.829987 156.519989 C 294.019989 156.690002 293.220001 159.01001 292.059998 161.669983 L 289.959991 166.5 L 292.660004 163.109985 C 296.619995 158.140015 304.279999 151 305.660004 151 C 306.309998 151 309.420013 157.640015 312.559998 165.75 C 315.690002 173.859985 319.98999 184.75 322.089996 189.950012 C 324.929993 196.959991 325.640015 199.730011 324.839996 200.700012 C 324.23999 201.410004 323.470001 201.919983 323.130005 201.830017 C 322.779999 201.73999 318.799988 201.399994 314.290009 201.080017 Z M 277.679993 189.25 C 277.019989 188.130005 278.559998 184.609985 280.369995 183.109985 C 281.75 181.959991 282.109985 182.149994 282.97998 184.459991 C 284.660004 188.869995 284.269989 190 281.059998 190 C 279.440002 190 277.919983 189.660004 277.679993 189.25 Z M 274.850006 138.25 C 270.529999 131.619995 270.369995 131.5 266.199982 131.589996 C 263.25 131.649994 261.529999 132.26001 260.549988 133.589996 C 259.169983 135.459991 259.130005 135.459991 258.320007 133.5 C 257.869995 132.399994 257.519989 128.350006 257.549988 124.5 C 257.589996 118.519989 258.089996 116.549988 261.009979 111 C 264.799988 103.779999 277.789978 90 280.799988 90 C 282.23999 90 283.72998 92.75 287.449982 102.25 C 290.089996 108.98999 293.950012 118.790009 296.029999 124.029999 C 301.01001 136.609985 300.690002 138.459991 293.130005 140.640015 C 290.029999 141.529999 286.609985 142.880005 285.529999 143.630005 C 281.539978 146.390015 279.48999 145.359985 274.850006 138.25 Z"/>
        <path id="path8" fill="#f49c4b" stroke="none" d="M 182 510.049988 C 182 508.809998 204.119995 483.519989 207.679993 480.700012 C 209.889999 478.940002 210.050003 478.959991 213.710007 481.450012 C 215.770004 482.850006 218.089996 484 218.860001 484 C 219.960007 484 220.119995 485.070007 219.600006 488.950012 C 219.020004 493.350006 219.179993 494.029999 221.089996 495.049988 C 222.279999 495.679993 224.559998 495.940002 226.169998 495.619995 C 229.279999 494.98999 229.270004 495.670013 226.119995 499.329987 C 224.639999 501.049988 219.399994 503.730011 216 504.51001 C 215.179993 504.690002 212.529999 505.559998 210.119995 506.420013 C 207.720001 507.290009 204.649994 508 203.309998 508 C 201.970001 508 200.110001 508.390015 199.179993 508.880005 C 196.350006 510.350006 182 511.339996 182 510.049988 Z M 218.690002 509.359985 C 218.039993 508.709991 220.990005 502.98999 221.970001 503.019989 C 222.259995 503.019989 224.520004 503.649994 227 504.410004 C 229.839996 505.279999 230.949997 506.01001 230 506.380005 C 227.990005 507.170013 219.800003 510 219.539993 510 C 219.429993 510 219.050003 509.709991 218.690002 509.359985 Z M 307.220001 346.170013 C 305.720001 344.609985 302.769989 341.23999 300.649994 338.670013 C 296.48999 333.630005 295 332.899994 295 335.919983 C 295 338.820007 293.929993 341 292.51001 341 C 291.070007 341 284 333.529999 284 332.019989 C 284 330 277.050018 320.279999 272.980011 316.600006 C 270.649994 314.48999 266.660004 311.869995 264.119995 310.759979 C 261.580017 309.649994 256.230011 307.22998 252.229996 305.369995 C 248.229996 303.519989 244.759995 302 244.520004 302 C 243.820007 302 223.080002 293.169983 216.080002 289.889984 C 209.830002 286.959991 204 285.220001 204 286.279999 C 204 286.570007 206.570007 288.509979 209.720001 290.600006 C 212.860001 292.690002 216.440002 295.549988 217.660004 296.949982 L 219.889999 299.5 L 217.529999 301.889984 C 215.520004 303.929993 213.759995 304.399994 205.589996 305.089996 C 194.759995 306 194.529999 306.100006 190.059998 311.23999 L 186.800003 314.98999 L 191.149994 316.850006 C 193.539993 317.869995 196.509995 319.029999 197.75 319.419983 C 198.990005 319.809998 200 320.459991 200 320.850006 C 200 321.970001 195.020004 324.570007 189.330002 326.419983 C 182.940002 328.509979 180.550003 331.619995 181.770004 336.279999 C 183.690002 343.600006 180.440002 345.049988 173.899994 339.799988 C 167.550003 334.699982 163.699997 327 167.5 327 C 170.210007 327 169.070007 325.539978 164.470001 323.100006 C 160.51001 320.98999 154 314 154 311.839996 C 154 311.419983 152.639999 308.919983 150.970001 306.299988 C 148.809998 302.880005 148.110001 300.779999 148.520004 298.919983 C 149.100006 296.259979 148.100006 294.880005 144.680008 293.660004 C 143.190002 293.130005 142.990005 293.389984 143.540009 295.130005 C 144.410004 297.869995 142.650009 298.970001 137.330002 298.97998 C 132.020004 299 130.01001 299.789978 129.980011 301.859985 C 129.970001 302.759979 129.059998 305.470001 127.970001 307.880005 C 125.529999 313.25 126.239998 314.380005 133.040009 316.009979 C 139.520004 317.559998 142.87001 320.199982 142.290009 323.289978 C 141.830002 325.669983 138.160004 327.320007 127.480003 329.959991 C 122.269997 331.25 119.830002 335.070007 120.68 340.589996 C 121.010002 342.73999 121.730003 345.070007 122.279999 345.769989 C 122.830002 346.470001 123.089996 347.23999 122.849998 347.480011 C 121.82 348.51001 113.980003 340.029999 111.160004 334.850006 L 108.089996 329.190002 L 110.550003 328.579987 C 111.900002 328.23999 112.980003 327.630005 112.949997 327.22998 C 112.919998 326.829987 110.779999 325.119995 108.199997 323.419983 C 101.589996 319.100006 94.660004 310.079987 91.060005 301.130005 C 87.310005 291.820007 87.220001 290.589996 90.349998 291.369995 C 94.43 292.399994 94.240005 290.709991 89.800003 286.380005 C 80.550003 277.359985 76.18 269.309998 73.5 256.350006 C 71.870003 248.440002 72.169998 246.450012 74.849998 247.52002 C 75.760002 247.880005 82.240005 249.710022 89.25 251.589996 C 96.260002 253.470001 107.959999 256.609985 115.25 258.580017 C 122.540001 260.539978 134.570007 263.73999 142 265.679993 C 149.430008 267.609985 160.449997 270.539978 166.5 272.190002 C 172.550003 273.830017 181.100006 276.079987 185.5 277.169983 C 189.899994 278.269989 198.199997 280.549988 203.949997 282.23999 C 209.699997 283.929993 215.779999 285.350006 217.449997 285.399994 C 219.130005 285.459991 220.729996 285.759979 221 286.089996 C 221.270004 286.410004 223.300003 287.169983 225.5 287.779999 C 227.699997 288.389984 235.350006 290.539978 242.5 292.549988 C 249.649994 294.549988 260.899994 297.619995 267.5 299.350006 C 282.25 303.22998 290.77002 307.829987 299.880005 316.839996 C 315.209991 331.98999 319.299988 339.959991 314.899994 346.140015 C 312.339996 349.73999 310.640015 349.73999 307.220001 346.170013 Z M 411.5 337.529999 C 406 336.839996 394.75 335.539978 386.5 334.630005 C 378.25 333.720001 368.220001 332.529999 364.209991 331.98999 C 360.200012 331.440002 355.359985 331 353.459991 331 C 350.920013 331 350 330.559998 350 329.359985 C 350 327.329987 351.950012 325.759979 359.040009 322.070007 C 374.049988 314.259979 391.769989 312.25 403.869995 317 C 412.220001 320.279999 422.649994 329.519989 423.369995 334.289978 C 423.470001 334.949982 423.880005 336.019989 424.269989 336.649994 C 424.820007 337.519989 422.549988 339.480011 421.670013 338.890015 C 421.579987 338.829987 417 338.209991 411.5 337.529999 Z M 354.98999 282.98999 C 353.880005 281.880005 351.619995 278.190002 349.980011 274.789978 C 348.329987 271.390015 346.040009 267.609985 344.890015 266.380005 C 341.200012 262.450012 338.059998 254.130005 334.450012 238.630005 C 326.109985 202.950012 326.420013 204.529999 327.929993 205.459991 C 328.450012 205.779999 329.619995 208.619995 330.529999 211.77002 C 331.440002 214.919983 332.799988 218.619995 333.540009 220 C 334.279999 221.380005 335.140015 224.130005 335.459991 226.109985 C 335.779999 228.100006 336.929993 230.529999 338.019989 231.52002 C 339.109985 232.5 340 233.679993 340 234.140015 C 340 235.059998 352.660004 268.100006 356.549988 277.320007 C 357.899994 280.509979 359 283.549988 359 284.070007 C 359 285.619995 357.119995 285.119995 354.98999 282.98999 Z M 314.290009 201.080017 C 306.279999 200.51001 305.970001 200.399994 301.75 196.25 C 297.579987 192.149994 295 190.910004 295 193 C 295 194.880005 292.369995 194 289.809998 191.25 C 287.580017 188.859985 287.220001 187.519989 287.070007 181.130005 C 286.920013 175.019989 287.330017 172.850006 289.429993 168.540009 C 292.029999 163.23999 303.290009 151 305.579987 151 C 306.290009 151 309.380005 157.540009 312.559998 165.75 C 315.690002 173.859985 319.98999 184.75 322.089996 189.950012 C 324.929993 196.959991 325.640015 199.730011 324.839996 200.700012 C 324.23999 201.410004 323.470001 201.919983 323.130005 201.830017 C 322.779999 201.73999 318.799988 201.399994 314.290009 201.080017 Z M 277.679993 189.25 C 277.02002 188.130005 278.559998 184.609985 280.369995 183.109985 C 281.75 181.959991 282.110016 182.149994 282.980011 184.459991 C 284.660004 188.869995 284.27002 190 281.059998 190 C 279.440002 190 277.920013 189.660004 277.679993 189.25 Z M 274.850006 138.25 C 270.529999 131.619995 270.369995 131.5 266.200012 131.589996 C 263.25 131.649994 261.529999 132.26001 260.550018 133.589996 C 259.170013 135.459991 259.130005 135.459991 258.320007 133.5 C 257.869995 132.399994 257.52002 128.350006 257.550018 124.5 C 257.589996 118.519989 258.089996 116.549988 261.01001 111 C 264.800018 103.779999 277.790009 90 280.800018 90 C 282.240021 90 283.730011 92.75 287.450012 102.25 C 290.089996 108.98999 293.950012 118.790009 296.029999 124.029999 C 301.01001 136.609985 300.690002 138.459991 293.130005 140.640015 C 290.029999 141.529999 286.610016 142.880005 285.529999 143.630005 C 281.540009 146.390015 279.490021 145.359985 274.850006 138.25 Z"/>
        <path id="path9" fill="#f17e2a" stroke="none" d="M 182 510.019989 C 182 509.380005 184.550003 506.01001 187.669998 502.529999 C 193.759995 495.720001 194.580002 495.519989 199.139999 499.720001 L 201.770004 502.160004 L 205.800003 500.100006 C 209.619995 498.149994 214 493.380005 214 491.179993 C 214 489.619995 206.169998 483.779999 205.020004 484.48999 C 202.600006 485.980011 204.279999 483.170013 207 481.149994 L 210.009995 478.929993 L 213.740005 481.470001 C 215.789993 482.859985 218.089996 484 218.860001 484 C 219.960007 484 220.119995 485.070007 219.600006 488.950012 C 219.020004 493.350006 219.179993 494.029999 221.089996 495.049988 C 222.279999 495.679993 224.559998 495.940002 226.169998 495.619995 C 229.279999 494.98999 229.270004 495.670013 226.119995 499.329987 C 224.639999 501.049988 219.399994 503.730011 216 504.51001 C 215.179993 504.690002 212.529999 505.559998 210.119995 506.420013 C 207.720001 507.290009 204.649994 508 203.309998 508 C 201.970001 508 200.110001 508.390015 199.179993 508.880005 C 196.279999 510.390015 182 511.339996 182 510.019989 Z M 218.690002 509.359985 C 218.039993 508.709991 220.990005 502.98999 221.970001 503.019989 C 222.259995 503.019989 224.520004 503.649994 227 504.410004 C 229.839996 505.279999 230.949997 506.01001 230 506.380005 C 227.990005 507.170013 219.800003 510 219.539993 510 C 219.429993 510 219.050003 509.709991 218.690002 509.359985 Z M 307.220001 346.170013 C 305.720001 344.609985 302.769989 341.23999 300.649994 338.670013 C 296.48999 333.630005 295 332.899994 295 335.920013 C 295 338.820007 293.929993 341 292.51001 341 C 291.070007 341 284 333.529999 284 332.02002 C 284 330 277.050018 320.279999 272.980011 316.600006 C 270.649994 314.490021 266.660004 311.869995 264.119995 310.76001 C 261.580017 309.649994 256.230011 307.230011 252.229996 305.369995 C 248.229996 303.52002 244.759995 302 244.520004 302 C 243.820007 302 223.080002 293.170013 216.080002 289.890015 C 209.830002 286.960022 204 285.220001 204 286.279999 C 204 286.570007 206.570007 288.51001 209.720001 290.600006 C 212.860001 292.690002 216.440002 295.550018 217.660004 296.950012 L 219.889999 299.5 L 217.529999 301.890015 C 215.520004 303.929993 213.759995 304.399994 205.589996 305.089996 C 194.759995 306 194.529999 306.100006 190.059998 311.240021 L 186.800003 314.990021 L 191.149994 316.850006 C 193.539993 317.869995 196.509995 319.029999 197.75 319.420013 C 198.990005 319.809998 200 320.460022 200 320.850006 C 200 321.970001 195.020004 324.570007 189.330002 326.420013 C 182.940002 328.51001 180.550003 331.619995 181.770004 336.279999 C 183.690002 343.600006 180.440002 345.049988 173.899994 339.799988 C 167.550003 334.700012 163.699997 327 167.5 327 C 170.210007 327 169.070007 325.540009 164.470001 323.100006 C 160.51001 320.990021 154 314 154 311.839996 C 154 311.420013 152.639999 308.920013 150.970001 306.300018 C 148.809998 302.880005 148.110001 300.779999 148.520004 298.920013 C 149.100006 296.26001 148.100006 294.880005 144.680008 293.660004 C 143.190002 293.130005 142.990005 293.390015 143.540009 295.130005 C 144.410004 297.869995 142.650009 298.970001 137.330002 298.980011 C 132.020004 299 130.01001 299.790009 129.980011 301.860016 C 129.970001 302.76001 129.059998 305.470001 127.970001 307.880005 C 125.529999 313.25 126.239998 314.380005 133.040009 316.01001 C 139.520004 317.559998 142.87001 320.200012 142.290009 323.290009 C 141.830002 325.670013 138.160004 327.320007 127.480003 329.960022 C 122.269997 331.25 119.830002 335.070007 120.68 340.589996 C 121.010002 342.73999 121.730003 345.070007 122.279999 345.769989 C 122.830002 346.470001 123.089996 347.23999 122.849998 347.480011 C 121.82 348.51001 113.980003 340.029999 111.160004 334.850006 L 108.089996 329.190002 L 110.550003 328.580017 C 111.900002 328.240021 112.980003 327.630005 112.949997 327.230011 C 112.919998 326.830017 110.779999 325.119995 108.199997 323.420013 C 101.589996 319.100006 94.660004 310.080017 91.060005 301.130005 C 87.310005 291.820007 87.220001 290.589996 90.349998 291.369995 C 94.43 292.399994 94.240005 290.710022 89.800003 286.380005 C 80.550003 277.360016 76.18 269.309998 73.5 256.350006 C 71.870003 248.440002 72.169998 246.450012 74.849998 247.52002 C 75.760002 247.880005 82.240005 249.710022 89.25 251.589996 C 96.260002 253.470001 107.959999 256.609985 115.25 258.580017 C 122.540001 260.539978 134.570007 263.73999 142 265.679993 C 149.430008 267.609985 160.449997 270.539978 166.5 272.190002 C 172.550003 273.830017 181.100006 276.080017 185.5 277.170013 C 189.899994 278.27002 198.199997 280.550018 203.949997 282.240021 C 209.699997 283.929993 215.779999 285.350006 217.449997 285.399994 C 219.130005 285.460022 220.729996 285.76001 221 286.089996 C 221.270004 286.410004 223.300003 287.170013 225.5 287.779999 C 227.699997 288.390015 235.350006 290.540009 242.5 292.559998 C 249.649994 294.570007 259.470001 297.25 264.309998 298.51001 C 269.160004 299.77002 273.880005 301.429993 274.809998 302.190002 C 275.740021 302.960022 277.77002 304.220001 279.330017 305 C 280.880005 305.779999 282.570007 307.190002 283.070007 308.140015 C 283.880005 309.649994 283.649994 309.76001 281.190002 309.050018 C 279.649994 308.610016 276.910004 307.490021 275.100006 306.550018 C 273.290009 305.619995 271.630005 305.040009 271.399994 305.27002 C 271.170013 305.5 272.77002 306.490021 274.950012 307.480011 C 279.480011 309.52002 289.920013 320.119995 298 330.899994 C 303.73999 338.549988 305.829987 341 306.600006 341 C 308.730011 341 314 337.769989 314 336.470001 C 314 333.130005 316.25 335.720001 316.579987 339.429993 C 316.959991 343.640015 314.059998 349 311.399994 349 C 310.589996 349 308.709991 347.730011 307.220001 346.170013 Z M 411.5 337.529999 C 406 336.839996 394.75 335.540009 386.5 334.630005 C 378.25 333.720001 368.220001 332.529999 364.209991 331.990021 C 360.200012 331.440002 355.359985 331 353.459991 331 C 350.920013 331 350 330.559998 350 329.360016 C 350 327.330017 351.950012 325.76001 359.040009 322.070007 C 374.049988 314.26001 391.769989 312.25 403.869995 317 C 412.220001 320.279999 422.649994 329.52002 423.369995 334.290009 C 423.470001 334.950012 423.880005 336.019989 424.269989 336.649994 C 424.820007 337.519989 422.549988 339.480011 421.670013 338.890015 C 421.579987 338.829987 417 338.209991 411.5 337.529999 Z M 354.98999 282.990021 C 353.880005 281.880005 351.619995 278.190002 349.980011 274.790009 C 348.329987 271.390015 346.040009 267.609985 344.890015 266.380005 C 341.200012 262.450012 338.059998 254.130005 334.450012 238.630005 C 326.109985 202.950012 326.420013 204.529999 327.929993 205.459991 C 328.450012 205.779999 329.609985 208.619995 330.51001 211.77002 C 331.420013 214.919983 332.720001 218.399994 333.420013 219.5 C 334.649994 221.440002 335.790009 226.339996 336.470001 232.5 C 336.829987 235.809998 339.850006 245.23999 345.410004 260.440002 C 349.059998 270.410004 353.019989 277 355.350006 277 C 356.410004 277 359 282.200012 359 284.320007 C 359 285.649994 356.970001 284.970001 354.98999 282.990021 Z M 314.290009 201.080017 C 306.279999 200.51001 305.970001 200.399994 301.75 196.25 C 297.579987 192.149994 295 190.910004 295 193 C 295 194.880005 292.369995 194 289.809998 191.25 C 287.580017 188.859985 287.220001 187.519989 287.070007 181.130005 C 286.920013 175.01001 287.320007 172.880005 289.429993 168.630005 C 291.890015 163.649994 296.549988 158.119995 302.570007 153.01001 L 305.5 150.519989 L 302.410004 154.01001 C 298.519989 158.399994 296.619995 166.269989 297.160004 175.790009 C 297.48999 181.649994 298 183.369995 300.029999 185.529999 C 301.940002 187.570007 303.170013 188.040009 305.5 187.660004 C 307.149994 187.399994 310.190002 187.660004 312.25 188.23999 C 315.429993 189.149994 316.299988 189.040009 318 187.5 C 319.109985 186.5 320.140015 185.859985 320.299988 186.089996 C 320.470001 186.320007 321.809998 189.380005 323.290009 192.910004 C 325.329987 197.75 325.709991 199.640015 324.869995 200.660004 C 324.26001 201.399994 323.470001 201.919983 323.130005 201.830017 C 322.779999 201.73999 318.799988 201.399994 314.290009 201.080017 Z M 277.679993 189.25 C 277.02002 188.130005 278.559998 184.609985 280.369995 183.109985 C 281.75 181.959991 282.110016 182.149994 282.980011 184.459991 C 284.660004 188.869995 284.27002 190 281.059998 190 C 279.440002 190 277.920013 189.660004 277.679993 189.25 Z M 302.609985 158.580017 C 302.910004 157.790009 303.809998 156.899994 304.600006 156.600006 C 305.76001 156.149994 305.839996 156.440002 304.98999 158.019989 C 303.779999 160.269989 301.779999 160.73999 302.609985 158.580017 Z M 274.850006 138.25 C 270.529999 131.619995 270.369995 131.5 266.200012 131.589996 C 263.25 131.649994 261.529999 132.26001 260.550018 133.589996 C 259.170013 135.459991 259.130005 135.459991 258.320007 133.5 C 257.869995 132.399994 257.52002 128.350006 257.550018 124.5 C 257.589996 118.480011 258.080017 116.589996 261.040009 111.059998 C 265.230011 103.220001 273.910004 93.429993 273.950012 96.5 C 273.960022 97.600006 273.320007 100.299988 272.529999 102.5 C 270.410004 108.390015 270.630005 119.609985 273.040009 127.380005 C 275.369995 134.950012 277.140015 136.410004 282.119995 134.929993 C 283.980011 134.369995 287.740021 133.73999 290.480011 133.51001 C 293.670013 133.25 295.899994 132.48999 296.709991 131.380005 C 298.149994 129.410004 298.880005 129.76001 299.140015 132.559998 C 299.660004 138.230011 299.179993 138.890015 293.25 140.609985 C 290.089996 141.519989 286.610016 142.880005 285.529999 143.630005 C 281.540009 146.390015 279.490021 145.359985 274.850006 138.25 Z M 279.600006 101.390015 C 279.279999 100.559998 278.5 100.190002 277.869995 100.579987 C 276.450012 101.459991 277.630005 94.170013 279.210022 92.25 C 280.860016 90.25 282.970001 90.799988 284 93.48999 C 285.080017 96.350006 284.440002 98.76001 281.929993 101.209991 C 280.399994 102.690002 280.110016 102.720001 279.600006 101.390015 Z"/>
        <path id="path10" fill="#f5a229" stroke="none" d="M 182 510.019989 C 182 509.380005 184.550003 506.01001 187.669998 502.529999 C 193.770004 495.709991 194.570007 495.51001 199.179993 499.769989 L 201.869995 502.25 L 206.259995 499.790009 L 210.660004 497.329987 L 210.199997 499.730011 C 209.850006 501.549988 210.259995 502.26001 211.910004 502.690002 C 213.110001 503 213.919998 503.730011 213.729996 504.309998 C 213.279999 505.670013 207.300003 507.829987 203.679993 507.920013 C 202.139999 507.970001 200.110001 508.390015 199.179993 508.880005 C 196.279999 510.390015 182 511.339996 182 510.019989 Z M 415 331.029999 C 412.130005 330.100006 390.480011 327.440002 374.859985 326.100006 C 357.279999 324.600006 355.970001 322.040009 370.369995 317.380005 C 381.940002 313.640015 394.920013 313.490021 403.890015 317 C 410.089996 319.420013 418.970001 326.210022 421.059998 330.119995 C 421.920013 331.710022 421.720001 331.990021 419.790009 331.920013 C 418.529999 331.880005 416.380005 331.480011 415 331.029999 Z M 101.830002 318.240021 C 96.900002 312.880005 93.989998 308.26001 91.019997 301.040009 C 87.299995 292.029999 87.199997 290.580017 90.349998 291.369995 C 94.43 292.399994 94.239998 290.710022 89.799995 286.380005 C 80.549995 277.360016 76.18 269.309998 73.5 256.350006 C 71.869995 248.440002 72.169998 246.450012 74.849998 247.52002 C 75.759995 247.880005 82.239998 249.710022 89.25 251.589996 C 96.259995 253.470001 107.959999 256.609985 115.25 258.580017 C 122.540001 260.539978 134.569992 263.73999 142 265.679993 C 149.429993 267.609985 160.449997 270.539978 166.5 272.190002 C 172.550003 273.830017 181.100006 276.080017 185.5 277.170013 C 189.899994 278.27002 198.199997 280.550018 203.949997 282.240021 C 209.699997 283.929993 215.779999 285.350006 217.449997 285.399994 C 219.130005 285.460022 220.729996 285.76001 221 286.089996 C 221.270004 286.410004 223.300003 287.170013 225.5 287.779999 C 227.699997 288.390015 235.350006 290.540009 242.5 292.559998 C 249.649994 294.570007 259.470001 297.25 264.309998 298.51001 C 269.160004 299.77002 273.880005 301.429993 274.809998 302.190002 C 275.73999 302.960022 277.769989 304.220001 279.329987 305 C 280.880005 305.779999 282.570007 307.190002 283.070007 308.140015 C 283.880005 309.649994 283.649994 309.76001 281.190002 309.050018 C 279.649994 308.610016 276.910004 307.490021 275.100006 306.550018 C 273.289978 305.619995 271.630005 305.040009 271.399994 305.27002 C 271.169983 305.5 272.759979 306.490021 274.929993 307.470001 C 277.109985 308.450012 279.929993 310.420013 281.199982 311.850006 C 282.459991 313.27002 282.789978 313.899994 281.910004 313.230011 C 279.059998 311.070007 272.109985 309.02002 271.410004 310.140015 C 270.259979 312.01001 262.559998 310.240021 253.660004 306.080017 C 248.880005 303.830017 244.770004 302 244.529999 302 C 244.080002 302 224.860001 293.950012 219.5 291.52002 C 217.850006 290.77002 212.979996 288.559998 208.690002 286.610016 C 204.389999 284.649994 199.660004 282.929993 198.190002 282.779999 C 195.919998 282.540009 195.5 282.890015 195.490005 285 C 195.449997 291.420013 185.350006 299.890015 174.470001 302.619995 C 170.949997 303.5 167.279999 304.800018 166.309998 305.51001 C 164.139999 307.100006 163.929993 313.640015 165.940002 317.390015 C 167.809998 320.880005 166.880005 321.5 162.839996 319.460022 C 157.789993 316.899994 155.080002 314.02002 152.410004 308.399994 C 149.12999 301.480011 149.25 300 153.089996 300 L 156.179993 300 L 151.339996 296.170013 C 145.519989 291.570007 142.209991 286.899994 137.940002 277.25 C 136.179993 273.26001 134.169998 270 133.479996 270 C 130.929993 270 127.580002 279.119995 127.519997 286.220001 C 127.480003 289.960022 126.940002 293.460022 126.279999 294.119995 C 125.629997 294.77002 120.93 295.640015 115.82 296.070007 C 107.269997 296.77002 106.370003 297.059998 104.279999 299.670013 C 101.510002 303.119995 101.459999 304.369995 103.900002 308.380005 C 105.660004 311.279999 106.309998 319.029999 104.900002 320.429993 C 104.599998 320.730011 103.220001 319.75 101.830002 318.240021 Z M 336.559998 238.23999 C 333.829987 232.570007 331.029999 223.640015 328.579987 212.75 C 327.649994 208.619995 329.670013 209.440002 331.029999 213.75 C 331.690002 215.809998 332.779999 218.399994 333.450012 219.5 C 334.700012 221.529999 335.799988 226.440002 336.540009 233.27002 C 336.76001 235.339996 337.440002 237.960022 338.049988 239.100006 C 338.660004 240.23999 338.980011 241.350006 338.76001 241.570007 C 338.540009 241.789978 337.549988 240.289978 336.559998 238.23999 Z M 296.140015 168.440002 C 296.040009 164.26001 296.48999 161.779999 297.570007 160.440002 C 299.059998 158.600006 299.100006 158.649994 298.399994 161.5 C 298 163.149994 297.359985 166.75 296.970001 169.5 L 296.279999 174.5 L 296.140015 168.440002 Z M 302.609985 158.580017 C 302.910004 157.790009 303.809998 156.899994 304.600006 156.600006 C 305.76001 156.149994 305.839996 156.440002 304.98999 158.019989 C 303.779999 160.269989 301.779999 160.73999 302.609985 158.580017 Z M 279.600006 101.390015 C 279.279999 100.559998 278.5 100.190002 277.869995 100.579987 C 276.449982 101.459991 277.630005 94.170013 279.209991 92.25 C 280.859985 90.25 282.970001 90.799988 284 93.48999 C 285.079987 96.350006 284.440002 98.76001 281.929993 101.209991 C 280.399994 102.690002 280.109985 102.720001 279.600006 101.390015 Z"/>
        <path id="path11" fill="#f7c443" stroke="none" d="M 182 510.070007 C 182 509.399994 184.539993 506.029999 187.639999 502.559998 C 193.699997 495.779999 195.139999 495.390015 198.979996 499.480011 L 201.139999 501.769989 L 198.580002 504.329987 C 197.050003 505.859985 196.259995 507.51001 196.619995 508.440002 C 197.050003 509.579987 196.580002 510 194.860001 510.01001 C 193.559998 510.01001 190.139999 510.299988 187.25 510.649994 C 183.460007 511.100006 182 510.940002 182 510.070007 Z M 411 325.600006 C 407.450012 324.329987 399.5 322.899994 386.119995 321.130005 C 378.359985 320.100006 376.369995 319.089996 377.299988 316.649994 C 378.089996 314.609985 389.089996 313.539978 396.019989 314.839996 C 405.399994 316.589996 418.019989 323.549988 416.440002 326.089996 C 415.75 327.209991 415.380005 327.169983 411 325.600006 Z M 280.940002 309.049988 C 279.529999 308.619995 277.330017 307.709991 276.050018 307.029999 C 272.980011 305.380005 243.470001 296.73999 236.5 295.449982 C 230.520004 294.339996 226.089996 293.130005 222.630005 291.649994 C 220.5 290.73999 218.149994 290 217.419998 290 C 215.440002 290 197.559998 281.649994 198.720001 281.259979 C 199.270004 281.079987 203.679993 282.079987 208.520004 283.47998 C 213.369995 284.880005 218.149994 285.769989 219.160004 285.449982 C 220.169998 285.130005 221 285.269989 221 285.759979 C 221 286.259979 222.910004 287.160004 225.25 287.759979 C 227.589996 288.369995 235.350006 290.519989 242.5 292.539978 C 249.649994 294.570007 259.470001 297.25 264.309998 298.509979 C 269.160004 299.769989 273.880005 301.429993 274.809998 302.190002 C 275.740021 302.959991 277.77002 304.220001 279.330017 305 C 280.880005 305.779999 282.589996 307.22998 283.110016 308.209991 C 283.640015 309.190002 283.940002 309.959991 283.790009 309.910004 C 283.630005 309.869995 282.350006 309.47998 280.940002 309.049988 Z M 154.779999 287.079987 C 144.930008 282.880005 140.669998 279.130005 138.669998 272.929993 C 135.690002 263.710022 135.62001 263.76001 146.25 266.710022 C 151.339996 268.119995 158.610001 270.089996 162.419998 271.080017 C 167.460007 272.399994 169.960007 273.649994 171.630005 275.690002 C 174.419998 279.100006 174.5 280.079987 172.25 282.829987 C 171.289993 284 169.690002 286.100006 168.699997 287.47998 C 166.350006 290.779999 163.240005 290.690002 154.779999 287.079987 Z M 100.949997 277.070007 C 94.040001 274.889984 82.090004 269.080017 79.760002 266.75 C 78.790001 265.789978 77.389999 265 76.639999 265 C 75.779999 265 74.830002 262.859985 74.080002 259.25 C 72.260002 250.47998 72.240005 247.470001 74 247.649994 C 75.709999 247.820007 92.270004 252.169983 102 255.01001 C 105.57 256.049988 110.470001 257.410004 112.889999 258.029999 L 117.279999 259.149994 L 116.720001 266.330017 C 116.010002 275.459991 115.510002 276.630005 111.769997 277.929993 C 108 279.23999 107.809998 279.22998 100.949997 277.070007 Z M 79.18 272.330017 C 79.660004 269.820007 82 269.47998 82 271.919983 C 82 273.149994 81.349998 274 80.43 274 C 79.5 274 78.990005 273.320007 79.18 272.330017 Z M 302.609985 158.580017 C 302.910004 157.790009 303.809998 156.899994 304.600006 156.600006 C 305.76001 156.149994 305.839996 156.440002 304.98999 158.019989 C 303.779999 160.269989 301.779999 160.73999 302.609985 158.580017 Z M 279.600006 101.390015 C 279.279999 100.559998 278.5 100.190002 277.869995 100.579987 C 276.450012 101.459991 277.630005 94.170013 279.210022 92.25 C 280.860016 90.25 282.970001 90.799988 284 93.48999 C 285.080017 96.350006 284.440002 98.76001 281.929993 101.209991 C 280.399994 102.690002 280.110016 102.720001 279.600006 101.390015 Z"/>
    </g>
</svg>
